<?xml version="1.0" encoding="UTF-8"?>
<svg id="Layer_1" xmlns="http://www.w3.org/2000/svg" version="1.1" viewBox="0 0 235.28 126.98">
  <!-- Generator: Adobe Illustrator 29.5.1, SVG Export Plug-In . SVG Version: 2.1.0 Build 141)  -->
  <defs>
    <style>
      .st0 {
        fill: none;
      }

      .st1 {
        fill: #abdbf6;
      }

      .st2 {
        fill: #86bc40;
      }

      .st3 {
        fill: #078844;
      }

      .st4 {
        fill: #0595d3;
      }

      .st5 {
        fill: #fff;
      }

      .st6 {
        fill: #011451;
      }

      .st7 {
        fill: #008c45;
      }

      .st8 {
        fill: #e33525;
      }

      .st9 {
        fill: #ffd024;
      }

      .st10 {
        fill: #e2a125;
      }
    </style>
  </defs>
  <rect class="st0" x=".1" y=".07" width="235.28" height="126.98"/>
  <rect class="st6" x="19.84" y="19.84" width="195.59" height="87.59"/>
  <g>
    <g>
      <path class="st6" d="M40.05,64.98c0,7.74,9.55,16.27,15.27,16.56h-.02c5.72-.3,15.28-8.83,15.27-16.57.04-10.5,0-24.97,0-24.97h-30.53v24.97h0Z"/>
      <path class="st5" d="M55.31,81.94h-.02c-5.75-.31-15.65-8.8-15.64-16.96v-25.37h31.32v.39c0,.14.04,14.59,0,24.97,0,8.16-9.89,16.65-15.64,16.96h-.02ZM40.44,40.4v24.57c0,7.61,9.52,15.86,14.87,16.16,5.35-.3,14.87-8.55,14.87-16.17.03-9.42,0-22.18,0-24.57h-29.74Z"/>
    </g>
    <rect class="st1" x="55.08" y="50.53" width=".97" height="26.89"/>
    <path class="st9" d="M61.54,59.79h4.79c1.41,0,1.54.19,1.64.5-.06-.47-.36-2.89-.58-4.63-.06-.46-.22-1.71-.85-2.46-.2-.24-.3-.36-.73-.54.03-.09.42-1.07.71-1.85.15-.4-.01-.8-.32-.99-.27-.16-.61-.17-.85-.17h-3.42c-.88,0-1.29.56-1.02,1.23.2.51.54,1.38.7,1.78-1.08.36-1.44,1.83-1.59,3.11-.26,2.15-.61,5.02-.64,5.2-.04.27-.08.5.37.52.85.06,1.85.06,3.52.02.16.09.37.15.65.14.27,0,.47-.08.61-.18.68-.02,1.46-.05,2.35-.09-.78-.02-1.51-.04-2.19-.06.24-.3.22-.72.2-.8-.1,1.12-1.56,1.01-1.2-.18-.16,0-.56,0-.82.21-.07.17-.05.47.12.71-.95-.04-1.73-.08-2.29-.11-.29,0-.43-.22-.28-.42.61-.8.65-.94,1.11-.94M61.98,50.37h3.18c.28,0,.75-.08.49.54-.23.55-.56,1.32-.7,1.65h-2.43c-.15-.36-.38-.87-.66-1.52-.15-.35-.22-.66.13-.66h0Z"/>
    <path class="st5" d="M55.34,77.31c0,.31-.21.57-.47.57s-.47-.26-.47-.57v-2.67c0-.31.21-.57.47-.57s.47.26.47.57v2.67"/>
    <path class="st10" d="M48.76,45.62c.15-.06.37-.05.57-.05-.22-.18-.42-.26-.54-.29-.28-1.07-1.83-.78-1.98.17-.05.34-1.27.49-2.66,2.35-.64.85-1.53,1.59-1.79,1.77-.27.17.39.12.69-.2.29.29.84-.57,1.69-.72.22-.04,3.02-.55,2.28-2.15.98,1.27-.66,2.18-1.69,2.28.09.05.63.09.69.12.15.05-.05.24.08.31.3.17.9.73.9.73,0,0,.34-.12.19-.27-.46-.3-.59-.4-.7-.59,0,0-.16-.29.15-.37.44-.04,1.87-.55,1.63-2.34-.04-.28.16-.59.51-.75"/>
    <path class="st6" d="M48.55,45.32c0,.09-.07.17-.16.17s-.15-.08-.15-.17.07-.17.15-.17.16.08.16.17"/>
    <rect class="st5" x="55.78" y="73.97" width=".52" height="3.78"/>
    <path class="st9" d="M56.76,78.34c.16-.16.25-.38.25-.62,0-.49-.4-.9-.9-.9h-1.53c-.5,0-.9.41-.9.9,0,.23.09.44.23.6-.19.16-.52.49-.61.6,1.03.45,2.98.41,4.07,0-.1-.09-.45-.41-.62-.57"/>
    <path class="st1" d="M55.32,47.32s0,.02,0,0c-.66-.59-2.8-.85-4.17-.5.09.17.2.7.26.91,2.02-.67,3.91.31,3.91.31v-.02.02s1.88-.98,3.91-.31c.06-.21.17-.74.26-.91-1.37-.35-3.5-.1-4.17.5"/>
    <rect class="st5" x="55.93" y="50.53" width=".3" height="20.84"/>
    <rect class="st5" x="54.41" y="50.53" width=".97" height="19.34"/>
    <path class="st6" d="M56.3,57.97c.06-.23.09-.79,0-.96h-1.57c.94.34,1.57.97,1.57.97"/>
    <path class="st6" d="M52.91,75.18c.54.08,3.44.22,3.44.22l.47,1.23s-2.53-.07-3.91-1.45"/>
    <path class="st1" d="M64.78,66.36c-.91-.59-2.01-.14-3.2-1.13,0,3.1,2.26,3.73.99,4.55-1.13.74-2.23.92-3.37.83.1-.16.27-.44.4-.58-1.4-.18-2.61-.08-3.13-.02-1.74-.51-3.67-1.16-5.99-1.19.42.34.84.94.84,1.97-.35-1.39-1.8-2.11-2.51-2.39-.21-.08-.41-.12-.62-.15-.1.14-.33.38-.7.52-.21-.11-.39.09-.36.16,0,.03,0,.07-.02.1-.21.27-.89.14-1.4-.03-.58-.2-.56.2-.45.4.18.32.36.53.45.71.78,1.58,1.35,2.63,3.07,3.61,1.63,1.21,3.69,1.83,5.78,1.9.76.27,2.51.76,4.71.41-.43-.29-.85-.57-1-.86,2.79-.81,5.21-2.64,6.19-5.41.01-.03.02-.06.03-.09.18-.61-.41-1.41-1.24-.62.72-1.74,1.92-.99,1.66.04.95-1.29,2.23-2.66,3.93-3.19-1.56-.72-3.08-.1-4.09.46"/>
    <path class="st6" d="M56.33,63.66c.06-.23.09-.79,0-.96h-1.57c.94.34,1.57.97,1.57.97"/>
    <path class="st9" d="M56.99,61.83c0,.5-.41.9-.91.9h-1.55c-.5,0-.91-.4-.91-.9s.41-.9.91-.9h1.55c.5,0,.91.4.91.9"/>
    <path class="st10" d="M56.05,62.42h-1.69s1.28-.08,2.09-.94c.21.14.25.94-.4.94"/>
    <path class="st6" d="M56.35,69.42c.06-.23.09-.79,0-.96h-1.57c.94.34,1.57.97,1.57.97"/>
    <path class="st9" d="M57,67.57c0,.5-.41.9-.91.9h-1.55c-.51,0-.91-.4-.91-.9s.41-.9.91-.9h1.55c.5,0,.91.4.91.9"/>
    <path class="st10" d="M56.07,68.16h-1.69s1.28-.07,2.09-.94c.21.14.26.94-.4.94"/>
    <rect class="st9" x="53.95" y="51.99" width="2.74" height="2.69"/>
    <path class="st10" d="M56.69,54.68c-.46.11-.43.5-.45.65h-1.83s.02-.58-.46-.65h2.74Z"/>
    <rect class="st10" x="55.55" y="51.99" width=".74" height="2.72"/>
    <path class="st9" d="M46.72,66.89c-.29.13-.53.39-.66.73-.13.34-.13.69,0,.98.09.21.25.37.45.45.2.07.42.06.63-.03.29-.13.53-.39.66-.73.23-.61.03-1.24-.45-1.43-.2-.08-.42-.07-.63.03M46.64,68.72c-.14-.05-.21-.17-.25-.26-.09-.2-.09-.46,0-.71.1-.24.27-.44.47-.53.09-.04.22-.07.36-.02.2.08.32.31.32.58,0,.13-.03.26-.07.39-.09.25-.27.44-.47.53-.09.04-.22.07-.36.02Z"/>
    <path class="st1" d="M47.13,68.62c-.15-.05-.53-.16-.99-.17-.32-.01-.64-.2-.62-.29.02-.07.1-.11.24-.12.31-.05.99,0,1.73.11-.06.18-.16.34-.35.48"/>
    <path class="st8" d="M48.28,46.78c0,1.37-1.06,1.8-1.36,1.88.1-.3.53-1.72,1.36-1.88"/>
    <path class="st9" d="M57.01,56.12c0,.5-.41.9-.91.9h-1.55c-.51,0-.91-.41-.91-.9s.41-.9.91-.9h1.55c.51,0,.91.4.91.9"/>
    <path class="st10" d="M56.08,56.71h-1.69s1.28-.08,2.09-.94c.21.15.25.94-.4.95"/>
    <path class="st5" d="M50.01,69.16c.99.66,1.32,1.63,1.32,1.63,0,0,.33-.81-.12-1.44.9-.26,2.46.15,3.87.7,2.07.81,3.61,1.08,5.19.81,1.57-.27,2.4-.59,2.91-1.38.27-.42,1.07-.33.84.3-.22.63-1.2,2.43-3.04,2.93-1.84.49-4.89,1.32-9.38.19-1.2-.3-4.03-1.05-5.19-2.54-.23-.3-.29-.85-.3-.94,0-.11.06-.16.31-.12.79.14.94-.16,1.24-.5.32-.04,1.47-.24,2.37.36"/>
    <path class="st4" d="M63.68,69.65c-1.37,2.61-4.03,3.02-6.81,3.1-1.13.03-2.26-.11-3.23-.36.82.08,1.66.02,2.18-.16-.2-1.05-1.99-1.81-3.24-1.88-.24-.27-.31-.62-.88-.82.41.37.37.89.57,1.16,1.02.21,2.27.47,2.87,1.27-.21.27-2.06.12-3.07-.11-.43-.16-.89-.42-1.13-.89-.48.54-1.24.34-2.03-.05,0-.31-.2-.57-.61-.65.09.13.11.27.11.38-.89-.51-1.73-1.14-2.16-1.1-.6.05,1.31,3.41,2.93,3.77,4.81,2.77,12.84,1.55,14.75-3.12.27-.68.03-1.11-.27-.54h.02Z"/>
    <path class="st5" d="M48.49,70.61c.03.29-.2.56-.52.59-.31.04-.59-.18-.62-.48s.2-.56.51-.59c.31-.03.59.18.62.48"/>
    <path class="st6" d="M48.22,70.66c0,.15-.13.26-.3.26s-.29-.11-.29-.26.13-.26.29-.26.3.12.3.26"/>
    <path class="st5" d="M62,65.87c-.33,1.14,1.08,2.67,1.08,2.67,0,0-.64-1.99-1.08-2.67"/>
    <path class="st5" d="M62.99,66.11c-.49.67.43,2.18.43,2.18,0,0-.05-1.21-.43-2.18"/>
    <path class="st5" d="M64.51,67.84c.38-.83,1.15-1.66,1.96-1.96-1.69.2-2.07,1.33-1.96,1.96"/>
    <path class="st5" d="M55.32,42.61c-.71-1.38-1.73-.32-3.51-.87-.31,1.46-.63,4.07-.72,4.52,1.22.37,2.29-.77,3.75.18-.16-1.88.45-3.45.45-3.45,0,0,.02-.23.04-.38"/>
    <path class="st1" d="M55.32,42.6c-.14-.24-.28-.45-.51-.59-.21,2.24-.26,2.73-.97,4.04.44.06.77.22,1,.38-.16-1.89.49-3.37.49-3.37v-.47h-.01Z"/>
    <path class="st5" d="M58.84,41.73c-1.78.55-2.8-.51-3.52.87v4.21c1.71-1.6,2.88-.16,4.23-.56-.09-.45-.41-3.06-.72-4.52"/>
    <rect class="st9" x="54.82" y="49.38" width=".99" height="1.15"/>
    <polygon class="st9" points="55.33 48.27 55.82 49.13 54.82 49.14 55.33 48.27"/>
    <path class="st3" d="M46.98,51.68h0"/>
    <path class="st2" d="M50.97,57.33s1.36-.67,1.5-1.36c-.42-.41-1.49-.45-1.49-.45,0,0,1.22-.93,1.17-1.6-.61-.28-1.7-.12-1.7-.12.5-.7.65-1.25.63-1.74-.63-.11-1.61.27-1.61.27,0,0,.33-1.17,0-1.78-.59-.16-1.42.88-1.42.88,0,0-.29-1.28-.98-1.96-.69.68-.99,1.96-.99,1.96,0,0-.83-1.03-1.42-.88-.32.61,0,1.78,0,1.78,0,0-.98-.38-1.62-.27-.02.49.13,1.04.63,1.74,0,0-1.09-.17-1.7.12-.05.67,1.17,1.6,1.17,1.6,0,0-1.06.04-1.48.45.14.69,1.5,1.36,1.5,1.36,0,0-.81.17-1.3.73.31.42,1.02.82,1.58.91-.48.39-.75.69-.87.91.78.63,2.41.72,4.05.21,0,.31,0,2.83-.38,3.99h1.65c-.38-1.15-.38-3.68-.38-3.99,1.63.51,3.27.42,4.05-.21-.12-.23-.39-.53-.87-.91.55-.09,1.26-.49,1.58-.91-.5-.56-1.3-.73-1.3-.73"/>
    <path class="st7" d="M49.48,57.37c.15-.09.94-.33,1.35-1.03-.4-.39-1.35-.41-1.35-.41,0,0,.84-.55,1.12-1.38-.72-.21-1.47,0-1.47,0,0,0,.61-.87.69-1.6-.69.08-1.42.44-1.42.44.21-.45.31-1.09.22-1.65-.34.07-.66.46-.85.71-.18-.56-.47-.73-.68-.85-.34.49-.4.81-.36,1.49.11-.11.29-.29.59-.46.18.96-.16,1.67-.16,1.67,0,0,.42-.28.99-.34.02.53-.17,1.08-.73,1.74,0,0,.49-.3,1.06-.34-.09.75-.55,1.25-1.02,1.68.32-.15.86-.13,1.23,0-.19.57-.64.86-1.29,1.21.4,0,.81.05,1.05.21-.26.49-.9.72-1.34.85,1.02.39,2.01.55,2.98.32-.07-.29-.43-.64-.86-.88.39-.09.97-.21,1.49-.65-.33-.33-.74-.55-1.23-.69"/>
    <path class="st10" d="M56.42,77.22c.13.16.23.91-.43.97-1.12.09-1.67-.03-1.67-.03,0,0,1.51-.18,2.09-.94"/>
    <path class="st10" d="M61.5,54.11c.07-.92.51-1.14,1.1-1.12h2.07c-.69.06-1.56.42-1.67,1.33-.1.84-.11,3.73-.13,4.97-.61.02-1.42,0-1.6.05.09-1.28.16-4.3.22-5.22"/>
    <rect class="st10" x="55.33" y="49.38" width=".3" height="1.15"/>
    <polygon class="st10" points="55.63 49.14 55.33 48.27 55.33 49.13 55.63 49.14"/>
    <path class="st6" d="M68.58,82.91c.6,0,1.11-.12,1.48-.34l.17-.1-.03.6v3.12c0,.1-.04.19-.13.27-.19.2-.59.31-1.04.3h-27.46c-.45.01-.86-.1-1.05-.3-.08-.08-.12-.16-.12-.26v-3.62l.15.07c.37.18.87.27,1.48.27h26.57-.02Z"/>
    <path class="st1" d="M66.73,79.64c.27,2.47-.03,2.09,0,2.8.23.06,2.1.42,2.76.06.67-.36,1.04-.54.73-.9s-1.85-1.34-2.47-1.44c-.62-.11-.86-.33-1.03-.52"/>
    <path class="st1" d="M44.02,79.72c.23.77-.43,1.96,0,2.82-.37-.01-2.56.09-2.97-.06-.43-.16-1.36-.48-.44-.99.93-.5,3.27-1.4,3.4-1.77"/>
    <g>
      <path class="st5" d="M44.28,78.73c-.62.84-1.59,1.25-2.44,1.61l-.4.19-.39.18-.14.06h0l-.22.13c-.64.34-1.06.79-1.06,1.9v3.4c0,.3.12.57.35.8.35.34.93.54,1.59.52h27.44c.65.02,1.23-.17,1.58-.52.23-.22.35-.5.35-.8v-3.5c.01-.95-.28-1.31-.78-1.62-.01,0-.49-.31-.49-.31l-.57-.26-.05-.03s-.32-.14-.32-.14c-.85-.36-1.82-.77-2.44-1.61,0,0-.03-.04-.07-.1-.01.05-.03.12-.03.12-.05.2-.08.39-.08.59,0,.37.09.7.19,1.08.12.43.26.94.28,1.62v.11h-22.6v-.11c.03-.67.17-1.18.28-1.59.1-.38.2-.73.2-1.11,0-.19-.03-.39-.08-.59,0,0-.02-.06-.03-.12-.03.05-.07.1-.07.1h0ZM41.04,82.03l-.11-.03.04-.11c.07-.19.27-.4.54-.57.02-.01.19-.1.19-.1l.51-.21c.38-.14.85-.32,1.23-.66l.22-.19-.05.35v.09c-.05.15-.09.33-.09.54,0,.25.07.54.2.86l.06.14h-1.76c-.37,0-.7-.04-.97-.11,0,0,0,0-.01,0ZM66.87,82.01c.14-.34.2-.62.2-.86,0-.2-.04-.36-.07-.52,0-.03-.02-.12-.02-.12l-.05-.33.21.18c.38.34.85.52,1.22.66l.41.17.4.22c.2.14.35.3.42.45l.04.1-.1.04c-.17.07-.47.15-.97.15h-1.76l.06-.14h.01ZM68.58,82.91c.6,0,1.11-.12,1.48-.34l.17-.1-.03.6v3.12c0,.1-.04.19-.13.27-.19.2-.59.31-1.04.3h-27.46c-.45.01-.86-.1-1.05-.3-.08-.08-.12-.16-.12-.26v-3.62l.15.07c.37.18.87.27,1.48.27h26.57-.02Z"/>
      <path class="st5" d="M41.58,83.81h.59l.41,1.14s.03.12.07.27c.04-.16.06-.25.07-.27l.4-1.14h.59l-.85,2.03h-.42l-.85-2.03"/>
      <rect class="st5" x="44.03" y="83.81" width=".56" height="2.03"/>
      <path class="st5" d="M45.64,83.81h.69l.7,2.03h-.55l-.1-.37h-.79l-.11.37h-.55l.7-2.03M46.27,85.08l-.21-.67s-.03-.13-.07-.28c-.04.15-.06.24-.07.28l-.21.67s.56,0,.56,0Z"/>
      <path class="st5" d="M48.13,83.81h.59l.41,1.14s.03.12.07.27c.04-.16.06-.25.07-.27l.4-1.14h.59l-.85,2.03h-.42l-.85-2.03"/>
      <polyline class="st5" points="50.57 83.81 51.81 83.81 51.81 84.25 51.11 84.25 51.11 84.61 51.77 84.61 51.77 85.04 51.11 85.04 51.11 85.39 51.81 85.39 51.81 85.84 50.57 85.84 50.57 83.81"/>
      <path class="st5" d="M52.32,83.81h.61c.28,0,.5,0,.67.14.15.11.22.29.22.5,0,.31-.16.51-.45.58l.55.82h-.63l-.47-.8v.8h-.52v-2.03M52.94,84.77c.23,0,.34-.07.34-.25,0-.21-.1-.28-.34-.28h-.11v.53h.11Z"/>
      <rect class="st5" x="54.3" y="83.81" width=".56" height="2.03"/>
      <polyline class="st5" points="55.74 84.29 55.29 84.29 55.29 83.81 56.75 83.81 56.75 84.29 56.29 84.29 56.29 85.84 55.74 85.84 55.74 84.29"/>
      <path class="st5" d="M57.62,83.81h.69l.7,2.03h-.55l-.1-.37h-.79l-.1.37h-.55l.7-2.03M58.25,85.08l-.21-.67s-.03-.13-.07-.28c-.04.15-.06.24-.07.28l-.2.67h.55Z"/>
      <path class="st5" d="M59.93,85.46c.15,0,.25-.09.25-.21,0-.16-.11-.21-.34-.27-.36-.1-.54-.24-.54-.56,0-.38.27-.66.7-.66.23,0,.43.06.6.18l-.17.4c-.13-.11-.26-.16-.39-.16-.14,0-.23.07-.23.17,0,.15.14.18.32.23.36.1.56.23.56.61,0,.42-.3.72-.78.72-.29,0-.5-.09-.72-.3l.25-.41c.16.19.32.28.49.28"/>
      <path class="st5" d="M61.91,83.81h.59l.41,1.14s.03.12.07.27c.04-.16.06-.25.07-.27l.4-1.14h.59l-.85,2.03h-.42l-.85-2.03"/>
      <rect class="st5" x="64.35" y="83.81" width=".56" height="2.03"/>
      <polyline class="st5" points="65.79 84.29 65.34 84.29 65.34 83.81 66.8 83.81 66.8 84.29 66.35 84.29 66.35 85.84 65.79 85.84 65.79 84.29"/>
      <path class="st5" d="M67.68,83.81h.69l.7,2.03h-.55l-.1-.37h-.79l-.11.37h-.55l.7-2.03M68.3,85.08l-.21-.67s-.03-.13-.07-.28c-.04.15-.06.24-.07.28l-.2.67s.55,0,.55,0Z"/>
    </g>
    <path class="st5" d="M100.85,39.59v.56c-2,.03-2.72.84-2.72,2.75v8.07c0,3.71-2.36,7.68-8.85,7.68-5.71,0-8.64-3.26-8.64-7.53v-8.73c0-1.91-.54-2.21-2.57-2.24v-.56h7.68v.56h-.27c-1.64,0-2.36.45-2.36,2.18v8.31c0,4.03,2.36,6.46,6.82,6.46,3.38,0,6.82-1.4,6.82-6.48v-6.97c0-2.87-.45-3.38-2.93-3.5v-.56h7.03-.01Z"/>
    <path class="st5" d="M104.23,55.59c0,1.64.39,2.04,2,2.04v.57h-6.01v-.57c1.31,0,2-.72,2-1.89v-6.28c0-1.11-.12-1.32-.9-1.46l-1.02-.21v-.48l3.44-1.26h.48v2.33c2-1.25,3.68-2.36,5.14-2.36,2.03,0,3.2,1.49,3.2,4.48,0,3.98-.21,4.75-.24,5.92-.03.81.45,1.2,1.67,1.2h.66v.57h-6.43v-.57c.86-.03,1.37-.24,1.7-.57.57-.57.63-2.75.63-6.73,0-2.39-1.16-3.14-2.36-3.14-.96,0-2.42.84-3.97,1.91v6.49h.01Z"/>
    <path class="st5" d="M120,55.91c0,1.05.57,1.71,2.15,1.71v.57h-6.64v-.57c1.82,0,2.48-.6,2.48-2.19v-6.01c0-1.17-.15-1.32-.93-1.47l-1.41-.27v-.48l3.88-1.35h.45v10.04s.02.02.02.02ZM118.78,39.14c.72,0,1.31.51,1.31,1.14s-.6,1.14-1.31,1.14-1.29-.51-1.29-1.14.57-1.14,1.29-1.14Z"/>
    <path class="st5" d="M128.24,58.46l-4.33-9.92c-.45-1.05-.84-1.41-1.32-1.5l-.93-.15v-.54h6.1v.54c-1.82.06-2.39.3-1.68,1.7l3.17,7.45,3.05-6.91c.54-1.23.27-2.09-1.91-2.24v-.54h5.2v.54c-1.14.21-1.8.86-2.36,2.18l-4.12,9.39h-.87Z"/>
    <path class="st5" d="M137.41,50.59c-.06.45-.12.87-.12,1.26,0,3.11,2.18,5.2,4.54,5.2,1.5,0,2.66-.6,3.8-1.94l.33.36c-1.26,1.59-3.14,3.08-5.32,3.08-2.93,0-5.2-2.66-5.2-6.13,0-3.17,2.12-6.4,5.77-6.4,4.03,0,3.95,2.9,4.93,3.89v.69h-8.73ZM143.63,49.82c-.33-1.94-1.52-3.23-2.96-3.23-.99,0-2.48.45-3.17,3.23h6.13Z"/>
    <path class="st5" d="M151.58,56c0,1.23.45,1.62,1.94,1.62h1.14v.57h-7.09v-.57c1.53-.03,2-.66,2-2.25v-6.9l-2-.72v-.51l3.41-1.2h.6v3.17h.06c1.49-2.45,1.85-3.02,2.84-3.02.36,0,.45.03,1.02.27.3.12.84.24,1.55.45l-.72,1.8c-.45-.06-1.02-.21-1.59-.48-.33-.15-.69-.3-1.05-.3-.53,0-.86.36-1.16.78-.39.54-.72,1.05-.96,1.49v5.8h0Z"/>
    <path class="st5" d="M158.73,55.17c.36,1.8,1.49,2.81,2.84,2.81,1.2,0,2.12-.9,2.12-1.97,0-.63-.15-1.02-.96-1.82-2.12-2.12-4.48-2.33-4.48-4.81,0-1.97,1.56-3.35,3.83-3.35.81,0,1.64.18,2.39.48l.06,2.72h-.51c-.21-1.52-1.19-2.48-2.39-2.48-.99,0-1.82.69-1.82,1.67,0,2.63,5.56,3.08,5.56,6.73,0,1.94-1.62,3.41-3.71,3.41-.57,0-.98-.09-1.31-.21-.33-.09-.57-.18-.81-.18-.18,0-.36.12-.51.36h-.45l-.33-3.35h.48Z"/>
    <path class="st5" d="M171.3,55.91c0,1.05.57,1.71,2.15,1.71v.57h-6.64v-.57c1.83,0,2.48-.6,2.48-2.19v-6.01c0-1.17-.15-1.32-.93-1.47l-1.41-.27v-.48l3.89-1.35h.45v10.06h.01ZM170.07,39.14c.72,0,1.31.51,1.31,1.14s-.6,1.14-1.31,1.14-1.29-.51-1.29-1.14.57-1.14,1.29-1.14Z"/>
    <path class="st5" d="M181.27,46.35l-.48,1.32h-3.22v6.96c0,1.88,1.35,2.51,1.97,2.51.66,0,1.25-.51,1.82-1.5l.48.45c-.72,1.56-1.88,2.45-3.26,2.45-1.76,0-3.02-1.47-3.02-3.47v-7.41h-1.38v-.48c1.17-.57,2.18-1.94,2.87-3.8h.51v2.96h3.71Z"/>
    <path class="st5" d="M192.43,49.67c.9-2.27.33-2.72-1.43-2.78v-.54h4.96v.54c-1.23.15-1.91.99-2.48,2.39l-5.08,12.67c-.89,2.21-1.58,3.2-2.63,3.2-.72,0-1.23-.45-1.23-1.05,0-1.23,1.73-.93,2.48-1.68.33-.33.78-1.11,1.02-1.7l.9-2.24-4.63-9.83c-.57-1.23-1.11-1.74-2.36-1.76v-.54h6.01v.54c-1.82.03-2.03.57-1.43,1.82l3.38,7.29,2.54-6.34h-.02Z"/>
    <path class="st5" d="M86.09,68.29c.87,0,2.72,1.19,2.72,4.4,0,5.68-5.65,8.16-7.05,8.16s-2.66-2.24-2.66-4.72c0-4.84,5.2-7.83,6.99-7.83h0ZM84.56,69.4c-1.88,0-3.56,3.62-3.56,6.61,0,2.51,1.07,3.74,2.09,3.74,2.39,0,3.8-3.89,3.8-6.64,0-2.1-1.02-3.71-2.33-3.71Z"/>
    <path class="st5" d="M89.87,69.64l.09-.57c.72-.09,1.44-.21,2.18-.39.45-2.45,1.34-5.02,3.02-6.69,1.05-1.05,2.36-1.61,3.53-1.61s2.12.66,2.12,1.43c0,.48-.36.87-.84.87-.98,0-1.79-1.23-2.66-1.23-1.17,0-2.12,1.31-2.54,3.29l-.81,3.92h2.57l-.3.99h-2.45l-1.52,8.73c-1.17,6.7-4.57,9.08-7.38,9.08-1.25,0-2.3-.63-2.3-1.37,0-.48.48-.9.99-.9,1.1,0,1.7,1.32,2.84,1.32.69,0,1.28-.33,1.82-.87,1.49-1.5,2.06-6.6,2.18-7.32l1.52-8.67h-2.06,0Z"/>
    <path class="st5" d="M118.42,79.08c-2.96,1.53-6.75,1.88-8.01,1.88-6.55,0-9.6-5.05-9.6-9.42s3.14-10.1,10.43-10.1c3.2,0,5.32,1.02,5.95,1.02.27,0,.51-.06.69-.21h.42v4.84h-.6c-.81-3.74-3.35-4.9-6.13-4.9-5.26,0-7.95,4.37-7.95,9.18,0,6.13,4.31,8.85,7.74,8.85,1.38,0,2.9-.3,4.57-1.13v-3.77c0-1.7-.6-2.27-2.39-2.27h-1.11v-.54h8.07v.54c-1.49.09-2.09.6-2.09,1.88v4.16h0Z"/>
    <path class="st5" d="M125,78.13c0,1.23.57,1.79,1.73,1.79h.51v.57h-6.72v-.57c1.91,0,2.48-.57,2.48-2v-14.44c0-.84-.09-1.11-.93-1.2l-1.34-.15v-.5l3.82-1.23h.45s0,17.73,0,17.73Z"/>
    <path class="st5" d="M128.72,72.21c-.06-.18-.09-.27-.09-.42,0-1.05,2.48-3.47,4.42-3.47.9,0,2.3.42,3.14,1.59.45.63.45,1.02.45,2.57v4.01c0,2.39,0,2.93.78,2.93.33,0,.72-.03,1.46-.66l.15.45c-1.61,1.31-2.45,1.64-2.96,1.64-1.23,0-1.34-1.35-1.37-1.82-2.06,1.7-2.66,1.82-3.47,1.82-1.73,0-2.78-.99-2.78-2.45,0-1.82,1.61-2.45,3.53-2.93.63-.15,1.61-.51,2.66-1.14v-2.36c0-.84,0-1.32-.51-1.91-.39-.48-1.01-.87-1.67-.87-.99,0-1.85.84-1.85,1.46,0,.18.03.3.15.57l-2.03.99h0ZM134.64,74.93c-.57.33-1.05.54-1.76.84-1.82.75-2.51,1.05-2.51,2.27,0,1.07.86,1.76,1.76,1.76.48,0,.84-.15,2.51-1.31v-3.56Z"/>
    <path class="st5" d="M140.5,77.47c.36,1.79,1.49,2.81,2.84,2.81,1.19,0,2.12-.9,2.12-1.97,0-.63-.15-1.02-.96-1.83-2.12-2.12-4.48-2.33-4.48-4.81,0-1.97,1.55-3.35,3.83-3.35.81,0,1.64.18,2.39.48l.06,2.72h-.51c-.21-1.53-1.2-2.48-2.39-2.48-.99,0-1.82.69-1.82,1.67,0,2.63,5.56,3.08,5.56,6.73,0,1.94-1.61,3.41-3.71,3.41-.57,0-.99-.09-1.32-.21-.33-.09-.57-.18-.81-.18-.18,0-.36.12-.51.36h-.45l-.33-3.35h.49Z"/>
    <path class="st5" d="M161.49,71.1c-.45-.03-1.86-.15-2.99-.36.18.33.51.96.51,1.91,0,2.21-1.91,4.34-5.23,4.34-.57,0-.84-.06-1.38-.24-.48.51-1.82.84-1.82,1.52,0,.75,1.28,1.05,4.27,1.08,3.38.03,4.54.18,5.44,1.08.72.72.89,1.46.89,2.09,0,1.94-2.63,4.93-8.16,4.93-3.11,0-4.6-1.37-4.6-2.84,0-1.73,1.82-2,3.2-3.67-1.61-.15-2.84-1.17-2.84-2.12,0-1.38,2-1.44,3.05-2.21-1.82-.72-2.87-2-2.87-3.71,0-2.57,2.3-4.57,5.26-4.57,1.38,0,2.54.42,3.35,1.2,1.34,0,2.6-.15,3.92-.3v1.89-.02h0ZM154.7,86.62c2.54,0,4.93-1.67,4.93-3.56,0-1.1-.92-1.67-2-1.76-.78-.09-4.54-.12-5.41-.24-.84.98-1.94,1.4-1.94,2.57,0,1.41,1.97,2.99,4.42,2.99h0ZM153.86,68.89c-1.14,0-2.9.63-2.9,3.41,0,1.76.9,4.13,3.17,4.13,1.73,0,2.87-1.44,2.87-3.5,0-2.57-1.32-4.03-3.14-4.03h0Z"/>
    <path class="st5" d="M168.55,68.32c3.65,0,6.43,2.72,6.43,6.28s-2.78,6.25-6.34,6.25-6.55-2.69-6.55-6.19c0-4.13,3.35-6.34,6.46-6.34ZM168.97,80.13c1.76,0,3.76-1.79,3.76-4.78,0-3.41-2.09-6.31-4.6-6.31-1.97,0-3.8,2.04-3.8,4.61,0,3.62,2.07,6.49,4.64,6.49h0Z"/>
    <path class="st5" d="M188.85,80.76l-3.56-8.43-3.59,8.43h-.84l-4.46-10.05c-.42-.93-.84-1.37-2.21-1.52v-.54h5.8v.54c-1.76.09-1.88.6-1.26,2l3.23,7.21,2.93-6.94c-.66-1.52-1.17-2.06-2.21-2.18l-.72-.09v-.54h6.19v.54c-1.46.03-1.91.48-1.28,1.97l2.93,7.12,2.87-6.99c.66-1.59.15-2.09-1.74-2.09v-.54h5.02v.54c-1.13.12-1.85.69-2.45,2.15l-3.85,9.42h-.81.01Z"/>
  </g>
  <metadata>
    <sfw xmlns="http://ns.adobe.com/SaveForWeb/1.0/">
      <slices/>
      <sliceSourceBounds x="-8073" y="-8128.3" width="16383" height="16383" bottomLeftOrigin="true"/>
    </sfw>
  </metadata>
</svg>