<?xml version="1.0" encoding="UTF-8"?>
<svg id="Layer_1" xmlns="http://www.w3.org/2000/svg" version="1.1" viewBox="0 0 235.28 126.98">
  <!-- Generator: Adobe Illustrator 29.5.1, SVG Export Plug-In . SVG Version: 2.1.0 Build 141)  -->
  <defs>
    <style>
      .st0 {
        fill: none;
      }

      .st1 {
        fill: #fff;
      }

      .st2 {
        fill: #99d9f7;
      }

      .st3 {
        fill: #029048;
      }
    </style>
  </defs>
  <rect class="st0" x="-.01" width="235.28" height="126.98"/>
  <path class="st1" d="M55.01,47.32s0,.02,0,0c-.66-.59-2.8-.85-4.17-.5.09.17.2.7.26.91,2.02-.67,3.91.31,3.91.31,0,0,0-.01,0-.02,0,0,0,.02,0,.02,0,0,1.88-.98,3.91-.31.06-.21.17-.74.26-.91-1.37-.35-3.5-.1-4.17.49"/>
  <path class="st1" d="M61.69,65.86c-.33,1.14,1.08,2.67,1.08,2.67,0,0-.64-1.99-1.08-2.67"/>
  <path class="st1" d="M62.68,66.1c-.49.67.43,2.18.43,2.18,0,0-.05-1.21-.43-2.18"/>
  <path class="st1" d="M64.21,67.83c.38-.83,1.15-1.66,1.96-1.96-1.69.2-2.07,1.33-1.96,1.96"/>
  <path class="st1" d="M51.5,41.73c-.32,1.46-.63,4.07-.72,4.52,1.22.37,2.29-.77,3.75.18-.16-1.88.45-3.45.45-3.45,0,0,.02-.23.04-.38-.71-1.38-1.73-.32-3.51-.87ZM58.53,41.73c-1.78.55-2.8-.51-3.51.87,0,.47,0,3.95,0,4.21,1.71-1.6,2.88-.15,4.23-.56-.09-.45-.4-3.06-.72-4.52Z"/>
  <polygon class="st1" points="55.02 48.27 55.51 49.13 54.51 49.13 55.02 48.27"/>
  <path class="st3" d="M46.67,51.67h0s0,0,0,0"/>
  <path class="st1" d="M50.67,57.32s1.36-.67,1.5-1.36c-.42-.4-1.49-.45-1.49-.45,0,0,1.22-.93,1.17-1.6-.61-.28-1.7-.12-1.7-.12.5-.7.65-1.25.63-1.74-.63-.11-1.61.27-1.61.27,0,0,.33-1.17,0-1.78-.59-.16-1.42.88-1.42.88,0,0-.29-1.28-.98-1.96-.03.03-.05.06-.08.09-.31-.21-.42-.3-.52-.46,0-.01-.16-.29.15-.37.44-.03,1.87-.54,1.63-2.34-.04-.28.16-.59.51-.75.15-.06.37-.05.57-.05-.22-.18-.42-.25-.54-.29-.28-1.07-1.83-.78-1.98.17-.06.34-1.27.49-2.66,2.35-.64.85-1.53,1.6-1.79,1.77-.27.17.39.12.69-.2.28.29.84-.57,1.69-.72.22-.04,3.02-.54,2.28-2.15.98,1.27-.66,2.18-1.69,2.28.09.05.63.09.69.11.15.06-.05.24.08.31.2.11.52.39.72.57-.5.7-.73,1.64-.73,1.64,0,0-.83-1.04-1.42-.88-.32.61,0,1.78,0,1.78,0,0-.98-.38-1.62-.27-.02.49.13,1.04.63,1.74,0,0-1.09-.17-1.7.12-.05.67,1.17,1.6,1.17,1.6,0,0-1.06.05-1.48.45.14.69,1.5,1.36,1.5,1.36,0,0-.81.17-1.3.73.32.42,1.02.82,1.58.91-.48.39-.75.69-.87.91.78.63,2.41.72,4.05.21,0,.31,0,2.83-.38,3.99h1.64c-.38-1.15-.38-3.68-.38-3.99,1.63.51,3.27.42,4.05-.21-.12-.23-.39-.53-.86-.91.55-.09,1.26-.49,1.58-.91-.5-.56-1.3-.73-1.3-.73ZM48.09,45.14c.09,0,.16.08.16.17s-.07.17-.16.17-.15-.07-.15-.17.07-.17.15-.17ZM50.41,58.05c-.51.43-1.09.56-1.48.65.43.25.79.6.86.88-.97.23-1.95.07-2.97-.32.44-.13,1.08-.36,1.34-.85-.23-.16-.64-.21-1.05-.21.65-.36,1.09-.64,1.29-1.21-.37-.12-.91-.13-1.23.01.47-.43.93-.93,1.02-1.68-.57.05-1.07.34-1.07.34.56-.65.76-1.2.73-1.73-.56.07-.99.34-.99.34,0,0,.34-.7.17-1.67-.29.17-.47.35-.59.46-.06-.67.03-1,.36-1.49.2.11.5.29.67.85.18-.26.5-.64.85-.71.09.56-.01,1.2-.22,1.65,0,0,.73-.36,1.42-.44-.08.73-.69,1.6-.69,1.6,0,0,.75-.21,1.47,0-.28.83-1.12,1.38-1.12,1.38,0,0,.94.01,1.35.41-.4.7-1.19.95-1.35,1.03.49.14.9.36,1.23.69Z"/>
  <g>
    <path class="st1" d="M43.97,78.76c-.62.84-1.59,1.25-2.45,1.61,0,0-.4.18-.4.18-.02,0-.4.18-.4.18,0,0-.14.06-.14.06h0s-.22.13-.22.13c-.64.34-1.06.79-1.06,1.9v.32s.01.54.01.54v2.55c0,.3.12.57.35.8.35.35.93.54,1.59.52h27.48c.65.02,1.23-.18,1.58-.52.23-.22.35-.5.35-.81v-2.56s0-.55,0-.55c0,0,.01-.39.01-.39,0-.95-.29-1.31-.79-1.62-.01,0-.49-.31-.49-.31,0,0-.57-.26-.57-.26-.01,0-.05-.03-.05-.03.01,0-.32-.14-.32-.14-.86-.36-1.83-.77-2.45-1.61,0,0-.03-.05-.07-.1-.01.05-.03.12-.03.12-.05.2-.08.39-.08.59,0,.37.09.7.19,1.09.12.43.26.95.28,1.62v.11s-22.63,0-22.63,0v-.11c.03-.67.17-1.18.28-1.59.1-.38.2-.74.2-1.11,0-.19-.02-.39-.08-.59,0,0-.02-.06-.03-.12-.03.05-.07.1-.07.1ZM40.73,82.07l-.11-.03.04-.11c.07-.19.27-.4.54-.57.02-.01.19-.1.19-.1.01,0,.51-.21.51-.21.38-.14.85-.32,1.23-.66l.22-.19-.05.35v.09c-.05.15-.09.33-.09.54,0,.25.07.54.2.86l.06.14h-1.76c-.37,0-.7-.04-.97-.11ZM66.59,82.04c.14-.33.2-.62.2-.86,0-.2-.04-.36-.07-.52,0-.03-.02-.12-.02-.12l-.05-.33.21.18c.38.34.85.52,1.23.66,0,0,.41.17.41.17,0,0,.4.22.4.22.2.14.35.3.42.46l.04.1-.1.04c-.17.07-.47.15-.97.15h-1.76l.06-.14ZM68.29,82.95c.6,0,1.11-.12,1.48-.34l.17-.1-.03.6v3.13c0,.1-.04.19-.13.26-.19.2-.59.31-1.04.3h-27.5c-.45.01-.86-.11-1.06-.3-.08-.08-.12-.16-.12-.26v-2.54s0-.57,0-.57c0,0-.01-.34-.01-.34v-.17s.15.07.15.07c.37.18.87.27,1.48.27h26.6Z"/>
    <path class="st1" d="M41.27,83.85h.59l.41,1.14s.03.12.07.27c.04-.16.06-.25.07-.27l.4-1.14h.59l-.85,2.04h-.42l-.85-2.04"/>
    <rect class="st1" x="43.72" y="83.85" width=".56" height="2.04"/>
    <path class="st1" d="M45.33,83.85h.69l.7,2.04h-.55l-.1-.37h-.79l-.11.37h-.55l.7-2.04M45.96,85.12l-.21-.67s-.03-.12-.07-.28c-.04.15-.06.24-.07.28l-.21.67h.55Z"/>
    <path class="st1" d="M47.83,83.85h.59l.41,1.14s.03.12.07.27c.04-.16.06-.25.07-.27l.41-1.14h.59l-.85,2.04h-.42l-.86-2.04"/>
    <polyline class="st1" points="50.26 83.85 51.51 83.85 51.51 84.29 50.8 84.29 50.8 84.65 51.47 84.65 51.47 85.08 50.8 85.08 50.8 85.43 51.51 85.43 51.51 85.88 50.26 85.88 50.26 83.85"/>
    <path class="st1" d="M52.02,83.85h.61c.28,0,.5,0,.67.14.15.11.23.29.23.5,0,.32-.16.52-.45.58l.55.82h-.63l-.47-.8v.8h-.52v-2.04M52.64,84.81c.23,0,.34-.07.34-.25,0-.21-.1-.28-.34-.28h-.11v.53h.1Z"/>
    <rect class="st1" x="54" y="83.85" width=".56" height="2.04"/>
    <polyline class="st1" points="55.44 84.33 54.99 84.33 54.99 83.85 56.45 83.85 56.45 84.33 56 84.33 56 85.88 55.44 85.88 55.44 84.33"/>
    <path class="st1" d="M57.33,83.85h.69l.7,2.04h-.55l-.1-.37h-.79l-.1.37h-.55l.7-2.04M57.95,85.12l-.21-.67s-.03-.12-.07-.28c-.04.15-.06.24-.07.28l-.2.67h.55Z"/>
    <path class="st1" d="M59.64,85.5c.15,0,.25-.09.25-.21,0-.16-.11-.21-.34-.27-.37-.1-.54-.24-.54-.56,0-.38.27-.66.7-.66.23,0,.43.06.6.18l-.17.4c-.13-.11-.26-.16-.39-.16-.14,0-.23.07-.23.17,0,.15.14.18.32.23.36.1.56.23.56.61,0,.42-.3.72-.78.72-.29,0-.51-.09-.72-.3l.25-.41c.16.19.32.28.48.28"/>
    <path class="st1" d="M61.62,83.85h.59l.41,1.14s.03.12.07.27c.04-.16.06-.25.07-.27l.4-1.14h.59l-.85,2.04h-.42l-.86-2.04"/>
    <rect class="st1" x="64.07" y="83.85" width=".56" height="2.04"/>
    <polyline class="st1" points="65.51 84.33 65.06 84.33 65.06 83.85 66.52 83.85 66.52 84.33 66.06 84.33 66.06 85.88 65.51 85.88 65.51 84.33"/>
    <path class="st1" d="M67.4,83.85h.69l.7,2.04h-.55l-.1-.37h-.79l-.11.37h-.55l.7-2.04M68.02,85.12l-.21-.67s-.03-.12-.07-.28c-.04.15-.06.24-.07.28l-.2.67h.55Z"/>
  </g>
  <path class="st1" d="M61.23,59.78h4.79c1.41,0,1.54.19,1.64.5-.06-.47-.36-2.88-.58-4.63-.06-.46-.21-1.71-.85-2.46-.2-.24-.3-.36-.73-.55.03-.09.43-1.07.71-1.85.15-.4-.01-.8-.32-.99-.27-.16-.61-.17-.85-.17-1.64,0-2.91,0-3.42,0-.88,0-1.29.56-1.02,1.23.2.51.54,1.38.7,1.78-1.08.36-1.44,1.83-1.59,3.11-.26,2.15-.61,5.02-.64,5.2-.04.27-.08.5.37.52.85.05,1.85.06,3.52.02.16.09.37.15.64.14.27,0,.47-.08.61-.18.68-.02,1.46-.06,2.35-.09-.78-.02-1.51-.04-2.19-.06.24-.3.22-.72.2-.8-.1,1.12-1.56,1.01-1.2-.17-.16,0-.56,0-.82.21-.07.17-.05.46.12.7-.95-.04-1.72-.08-2.29-.11-.29-.01-.43-.22-.28-.42.61-.8.65-.94,1.11-.94ZM61.67,50.36c.87,0,2.27,0,3.18,0,.28,0,.75-.08.49.54-.23.55-.56,1.32-.7,1.65-.48,0-2.42,0-2.43,0-.15-.36-.38-.87-.66-1.52-.15-.35-.22-.66.13-.66ZM61.19,54.1c.07-.92.5-1.14,1.1-1.12.34,0,.84.01,2.07,0-.69.06-1.55.42-1.67,1.32-.1.84-.11,3.73-.13,4.97-.61.02-1.42,0-1.6.05.09-1.28.16-4.3.22-5.22Z"/>
  <path class="st2" d="M54.98,42.98"/>
  <path class="st1" d="M56.45,78.33c.15-.16.25-.38.25-.62,0-.43-.3-.79-.71-.88v-.25c-.15-.02-.32-.04-.52-.08v.31h-.44v-.4c-.3-.07-.62-.17-.94-.3v.72c-.41.08-.72.45-.72.88,0,.23.09.44.23.6-.19.17-.51.49-.61.6,1.03.45,2.98.42,4.08,0-.1-.09-.45-.41-.62-.57ZM55.69,78.17c-1.13.09-1.67-.02-1.67-.02,0,0,1.51-.18,2.09-.95.13.16.23.91-.43.97Z"/>
  <path class="st1" d="M55.93,50.52h-.3v1.46h.3v-1.46ZM64.48,66.35c-.91-.59-2.01-.14-3.2-1.13,0,3.1,2.26,3.73.99,4.55-1.13.74-2.23.93-3.37.83.1-.15.27-.44.4-.58-1.4-.18-2.62-.08-3.13-.02-.08-.02-.17-.05-.25-.08v-.62c-.07-.06-.17-.14-.3-.24v.77c-.18-.05-.37-.11-.55-.16v-.96c-.18-.1-.38-.2-.6-.28.38.01,1,0,1.45,0h0c.44-.07.77-.44.77-.89s-.34-.82-.77-.88v-3.12c-.07-.06-.17-.14-.3-.24v3.35h-.55v-3.7c-.18-.1-.39-.2-.61-.28.4.01,1.09,0,1.54,0,.39-.1.68-.45.68-.87,0-.45-.33-.81-.76-.88v-3.04c-.06-.05-.16-.14-.3-.24v3.27h-.55v-3.63c-.19-.11-.41-.21-.64-.3.39.01,1.05,0,1.51,0,.44-.07.77-.44.77-.89s-.33-.82-.77-.88c.01-.17.06-.46.43-.55h.01v-2.69h-.4v2.69h-.74v-2.69h-.17v-1.46h.44v-1.15h-.99v1.15h-.41v1.47h-.47v2.69h.01c.36.06.43.39.44.55-.43.07-.76.44-.76.88s.33.82.77.89v3.93c-.45.06-.79.43-.79.89s.35.83.79.89v3.97c-.44.06-.78.43-.78.88s.34.82.78.89v.96c-1.19-.31-2.48-.57-3.92-.59.42.34.84.94.84,1.97-.35-1.39-1.8-2.11-2.5-2.39-.21-.08-.41-.12-.62-.15-.1.14-.33.38-.7.52,0,0,0,0,0,0,.13-.13.24-.29.31-.47.23-.61.03-1.24-.45-1.43-.2-.08-.42-.07-.63.03-.29.13-.53.39-.66.73-.05.13-.07.26-.09.39-.09,0-.16,0-.23.02-.14.02-.22.05-.24.12-.02.08.22.23.49.28.02.06.03.12.05.18.09.21.25.37.45.44.19.07.41.06.61-.02-.21.27-.89.14-1.39-.04-.58-.2-.56.2-.45.4.18.32.36.54.45.72.78,1.58,1.35,2.62,3.07,3.61,1.63,1.21,3.69,1.83,5.78,1.9.76.27,2.51.76,4.71.41-.43-.29-.85-.57-.99-.86,2.79-.81,5.2-2.64,6.19-5.41.01-.03.02-.06.03-.09.18-.61-.41-1.41-1.24-.62.72-1.74,1.92-.98,1.66.04.95-1.28,2.23-2.66,3.93-3.19-1.56-.72-3.08-.1-4.09.46ZM54.08,56.7s1.28-.08,2.09-.95c.21.15.25.94-.4.95-.91.01-1.69,0-1.69,0ZM54.06,62.41s1.28-.08,2.09-.94c.21.14.25.94-.4.94-.91,0-1.69,0-1.69,0ZM54.07,68.15s1.28-.07,2.09-.94c.21.14.25.94-.4.94-.91,0-1.69,0-1.69,0ZM47.61,70.39c.16,0,.3.12.3.26s-.13.26-.3.26-.29-.12-.29-.26.13-.26.29-.26ZM46.09,67.74c.1-.24.27-.44.47-.53.09-.04.22-.07.36-.02.2.08.32.31.32.58,0,.12-.02.24-.07.36-.42-.07-.81-.11-1.14-.12.01-.09.03-.18.06-.26ZM46.69,68.69c-.09.04-.22.07-.36.02-.13-.05-.21-.16-.25-.25.34.04.61.12.74.16-.04.03-.08.06-.13.08ZM63.37,69.64c.3-.57.54-.14.27.54-1.9,4.68-9.94,5.9-14.75,3.13-1.62-.36-3.54-3.72-2.93-3.77.3-.02.81.28,1.39.64-.2.1-.32.3-.3.53.03.29.31.51.62.47.31-.03.54-.29.52-.59-.01-.13-.08-.24-.17-.33,0,0,0,0,0,0,.41.08.59.35.6.65.79.39,1.55.58,2.03.05.24.47.69.73,1.13.89,1.01.23,2.85.38,3.07.11-.6-.8-1.85-1.06-2.87-1.27-.2-.27-.17-.79-.57-1.16.57.2.64.55.88.82,1.25.07,3.04.83,3.24,1.88-.52.18-1.36.24-2.18.16.97.25,2.1.39,3.23.36,2.78-.09,5.44-.49,6.81-3.1Z"/>
  <path class="st1" d="M55.19,81.99h-.02c-5.76-.31-15.67-8.82-15.66-16.98v-25.4h31.36s0,.39,0,.39c0,.14.04,14.61,0,25,0,8.17-9.9,16.68-15.66,16.98h-.02ZM40.3,40.4v24.6c0,7.62,9.53,15.88,14.89,16.19,5.35-.31,14.89-8.56,14.89-16.19.03-9.43,0-22.2,0-24.6h-29.77Z"/>
  <path class="st1" d="M100.55,39.61v.56c-2.01.03-2.72.84-2.72,2.75v8.08c0,3.71-2.36,7.69-8.85,7.69-5.71,0-8.64-3.26-8.64-7.54v-8.73c0-1.92-.54-2.21-2.57-2.25v-.56h7.69v.56h-.27c-1.64,0-2.36.45-2.36,2.19v8.31c0,4.04,2.36,6.46,6.82,6.46,3.38,0,6.82-1.41,6.82-6.49v-6.97c0-2.87-.45-3.38-2.93-3.5v-.56h7.03Z"/>
  <path class="st1" d="M103.92,55.61c0,1.64.39,2.04,2,2.04v.57h-6.01v-.57c1.31,0,2-.72,2-1.89v-6.28c0-1.11-.12-1.32-.9-1.47l-1.02-.21v-.48l3.44-1.26h.48v2.33c2-1.25,3.68-2.36,5.14-2.36,2.03,0,3.2,1.49,3.2,4.48,0,3.98-.21,4.75-.24,5.92-.03.81.45,1.2,1.67,1.2h.66v.57h-6.43v-.57c.86-.03,1.37-.24,1.7-.57.57-.57.63-2.75.63-6.73,0-2.39-1.17-3.14-2.36-3.14-.96,0-2.42.84-3.98,1.91v6.49Z"/>
  <path class="st1" d="M119.71,55.94c0,1.05.57,1.71,2.15,1.71v.57h-6.64v-.57c1.82,0,2.48-.6,2.48-2.19v-6.01c0-1.17-.15-1.32-.93-1.47l-1.41-.27v-.48l3.89-1.35h.45v10.05ZM118.48,39.16c.72,0,1.31.51,1.31,1.14s-.6,1.14-1.31,1.14-1.29-.51-1.29-1.14.57-1.14,1.29-1.14Z"/>
  <path class="st1" d="M127.95,58.48l-4.34-9.93c-.45-1.05-.84-1.41-1.32-1.5l-.93-.15v-.54h6.1v.54c-1.83.06-2.39.3-1.68,1.7l3.17,7.45,3.05-6.91c.54-1.23.27-2.09-1.91-2.24v-.54h5.2v.54c-1.14.21-1.8.87-2.36,2.18l-4.12,9.39h-.87Z"/>
  <path class="st1" d="M137.12,50.61c-.06.45-.12.87-.12,1.26,0,3.11,2.18,5.21,4.54,5.21,1.5,0,2.66-.6,3.8-1.95l.33.36c-1.26,1.59-3.14,3.08-5.32,3.08-2.93,0-5.2-2.66-5.2-6.13,0-3.17,2.12-6.4,5.77-6.4,4.03,0,3.95,2.9,4.93,3.89v.69h-8.74ZM143.34,49.83c-.33-1.94-1.52-3.23-2.96-3.23-.99,0-2.48.45-3.17,3.23h6.13Z"/>
  <path class="st1" d="M151.3,56.03c0,1.23.45,1.62,1.94,1.62h1.14v.57h-7.09v-.57c1.53-.03,2-.66,2-2.25v-6.91l-2-.72v-.51l3.41-1.2h.6v3.17h.06c1.49-2.45,1.85-3.02,2.84-3.02.36,0,.45.03,1.02.27.3.12.84.24,1.56.45l-.72,1.8c-.45-.06-1.02-.21-1.59-.48-.33-.15-.69-.3-1.05-.3-.53,0-.86.36-1.17.78-.39.54-.72,1.05-.96,1.49v5.8Z"/>
  <path class="st1" d="M158.45,55.19c.36,1.8,1.49,2.81,2.84,2.81,1.2,0,2.12-.9,2.12-1.97,0-.63-.15-1.02-.96-1.83-2.12-2.12-4.48-2.33-4.48-4.81,0-1.97,1.56-3.35,3.83-3.35.81,0,1.64.18,2.39.48l.06,2.72h-.51c-.21-1.53-1.19-2.48-2.39-2.48-.99,0-1.82.69-1.82,1.67,0,2.63,5.56,3.08,5.56,6.73,0,1.95-1.62,3.41-3.71,3.41-.57,0-.98-.09-1.32-.21-.33-.09-.57-.18-.81-.18-.18,0-.36.12-.51.36h-.45l-.33-3.35h.48Z"/>
  <path class="st1" d="M171.02,55.94c0,1.05.57,1.71,2.15,1.71v.57h-6.64v-.57c1.83,0,2.48-.6,2.48-2.19v-6.01c0-1.17-.15-1.32-.93-1.47l-1.41-.27v-.48l3.89-1.35h.45v10.05ZM169.79,39.16c.72,0,1.31.51,1.31,1.14s-.6,1.14-1.31,1.14-1.29-.51-1.29-1.14.57-1.14,1.29-1.14Z"/>
  <path class="st1" d="M181,46.37l-.48,1.32h-3.22v6.97c0,1.88,1.35,2.51,1.97,2.51.66,0,1.26-.51,1.82-1.5l.48.45c-.72,1.56-1.89,2.46-3.26,2.46-1.76,0-3.02-1.47-3.02-3.47v-7.42h-1.38v-.48c1.17-.57,2.18-1.94,2.87-3.8h.51v2.96h3.7Z"/>
  <path class="st1" d="M192.17,49.68c.9-2.27.33-2.72-1.44-2.78v-.54h4.96v.54c-1.23.15-1.91.99-2.48,2.39l-5.09,12.68c-.89,2.21-1.58,3.2-2.63,3.2-.72,0-1.23-.45-1.23-1.05,0-1.23,1.73-.93,2.48-1.68.33-.33.78-1.11,1.02-1.7l.9-2.25-4.63-9.84c-.57-1.23-1.11-1.74-2.36-1.76v-.54h6.01v.54c-1.82.03-2.03.57-1.44,1.82l3.38,7.3,2.54-6.34Z"/>
  <path class="st1" d="M85.77,68.32c.87,0,2.72,1.19,2.72,4.4,0,5.68-5.65,8.16-7.06,8.16s-2.66-2.24-2.66-4.73c0-4.84,5.2-7.84,7-7.84ZM84.25,69.43c-1.88,0-3.56,3.62-3.56,6.61,0,2.51,1.08,3.74,2.09,3.74,2.39,0,3.8-3.89,3.8-6.64,0-2.1-1.02-3.71-2.33-3.71Z"/>
  <path class="st1" d="M89.56,69.66l.09-.57c.72-.09,1.44-.21,2.18-.39.45-2.45,1.35-5.02,3.02-6.7,1.05-1.05,2.36-1.61,3.53-1.61s2.12.66,2.12,1.43c0,.48-.36.87-.84.87-.98,0-1.79-1.23-2.66-1.23-1.17,0-2.12,1.32-2.54,3.29l-.81,3.92h2.57l-.3.99h-2.45l-1.52,8.73c-1.17,6.7-4.58,9.09-7.39,9.09-1.25,0-2.3-.63-2.3-1.37,0-.48.48-.9.99-.9,1.1,0,1.7,1.32,2.84,1.32.69,0,1.29-.33,1.83-.87,1.49-1.5,2.06-6.61,2.18-7.32l1.53-8.68h-2.06Z"/>
  <path class="st1" d="M118.12,79.11c-2.96,1.53-6.76,1.88-8.01,1.88-6.55,0-9.6-5.05-9.6-9.42s3.14-10.11,10.44-10.11c3.2,0,5.32,1.02,5.95,1.02.27,0,.51-.06.69-.21h.42v4.84h-.6c-.81-3.74-3.35-4.9-6.13-4.9-5.26,0-7.96,4.37-7.96,9.18,0,6.13,4.31,8.85,7.75,8.85,1.38,0,2.9-.3,4.58-1.14v-3.77c0-1.7-.6-2.27-2.39-2.27h-1.11v-.54h8.07v.54c-1.49.09-2.09.6-2.09,1.88v4.16Z"/>
  <path class="st1" d="M124.71,78.16c0,1.23.57,1.79,1.73,1.79h.51v.57h-6.73v-.57c1.91,0,2.48-.57,2.48-2v-14.44c0-.84-.09-1.11-.93-1.2l-1.34-.15v-.51l3.83-1.23h.45v17.73Z"/>
  <path class="st1" d="M128.43,72.24c-.06-.18-.09-.27-.09-.42,0-1.05,2.48-3.47,4.43-3.47.9,0,2.3.42,3.14,1.59.45.63.45,1.02.45,2.57v4.01c0,2.39,0,2.93.78,2.93.33,0,.72-.03,1.46-.66l.15.45c-1.61,1.31-2.45,1.64-2.96,1.64-1.23,0-1.35-1.35-1.37-1.82-2.06,1.7-2.66,1.82-3.47,1.82-1.73,0-2.78-.99-2.78-2.45,0-1.82,1.61-2.45,3.53-2.93.63-.15,1.61-.51,2.66-1.14v-2.36c0-.84,0-1.32-.51-1.91-.39-.48-1.01-.87-1.67-.87-.99,0-1.85.84-1.85,1.46,0,.18.03.3.15.57l-2.03.99ZM134.35,74.96c-.57.33-1.05.54-1.76.84-1.83.75-2.51,1.05-2.51,2.28,0,1.07.86,1.76,1.76,1.76.48,0,.84-.15,2.51-1.32v-3.56Z"/>
  <path class="st1" d="M140.21,77.5c.36,1.79,1.5,2.81,2.85,2.81,1.2,0,2.12-.9,2.12-1.97,0-.63-.15-1.02-.96-1.83-2.12-2.12-4.48-2.33-4.48-4.81,0-1.97,1.55-3.35,3.83-3.35.81,0,1.64.18,2.39.48l.06,2.72h-.51c-.21-1.53-1.2-2.48-2.39-2.48-.99,0-1.82.69-1.82,1.67,0,2.63,5.56,3.08,5.56,6.73,0,1.94-1.62,3.41-3.71,3.41-.57,0-.99-.09-1.32-.21-.33-.09-.57-.18-.81-.18-.18,0-.36.12-.51.36h-.45l-.33-3.35h.48Z"/>
  <path class="st1" d="M161.21,71.13c-.45-.03-1.86-.15-2.99-.36.18.33.51.96.51,1.91,0,2.21-1.91,4.34-5.23,4.34-.57,0-.84-.06-1.38-.24-.48.51-1.82.84-1.82,1.52,0,.75,1.29,1.05,4.28,1.08,3.38.03,4.55.18,5.44,1.08.72.72.89,1.46.89,2.09,0,1.94-2.63,4.93-8.16,4.93-3.11,0-4.6-1.37-4.6-2.84,0-1.73,1.82-2,3.2-3.67-1.61-.15-2.84-1.17-2.84-2.13,0-1.38,2.01-1.44,3.05-2.21-1.82-.72-2.87-2-2.87-3.71,0-2.57,2.3-4.58,5.26-4.58,1.38,0,2.54.42,3.35,1.2,1.34,0,2.6-.15,3.92-.3v1.89ZM154.42,86.65c2.54,0,4.93-1.67,4.93-3.56,0-1.1-.92-1.67-2-1.76-.78-.09-4.54-.12-5.41-.24-.84.98-1.95,1.41-1.95,2.57,0,1.41,1.97,2.99,4.43,2.99ZM153.58,68.92c-1.14,0-2.9.63-2.9,3.41,0,1.76.9,4.13,3.17,4.13,1.73,0,2.87-1.44,2.87-3.5,0-2.57-1.32-4.04-3.14-4.04Z"/>
  <path class="st1" d="M168.28,68.35c3.65,0,6.43,2.72,6.43,6.28s-2.78,6.25-6.34,6.25-6.55-2.69-6.55-6.19c0-4.13,3.35-6.34,6.46-6.34ZM168.69,80.16c1.76,0,3.76-1.8,3.76-4.78,0-3.41-2.09-6.31-4.6-6.31-1.97,0-3.8,2.04-3.8,4.61,0,3.62,2.07,6.49,4.64,6.49Z"/>
  <path class="st1" d="M188.58,80.79l-3.56-8.43-3.59,8.43h-.84l-4.46-10.05c-.42-.93-.84-1.38-2.21-1.52v-.54h5.8v.54c-1.77.09-1.89.6-1.26,2l3.23,7.21,2.93-6.94c-.66-1.52-1.17-2.06-2.22-2.18l-.72-.09v-.54h6.19v.54c-1.46.03-1.91.48-1.28,1.97l2.93,7.12,2.87-7c.66-1.59.15-2.09-1.74-2.09v-.54h5.02v.54c-1.14.12-1.85.69-2.45,2.15l-3.85,9.42h-.81Z"/>
  <metadata>
    <sfw xmlns="http://ns.adobe.com/SaveForWeb/1.0/">
      <slices/>
      <sliceSourceBounds x="-8050.82" y="-8245.46" width="16432.15" height="16383" bottomLeftOrigin="true"/>
    </sfw>
  </metadata>
</svg>