<?xml version="1.0" encoding="UTF-8"?>
<svg id="Layer_1" xmlns="http://www.w3.org/2000/svg" version="1.1" viewBox="0 0 235.28 126.98">
  <!-- Generator: Adobe Illustrator 29.5.1, SVG Export Plug-In . SVG Version: 2.1.0 Build 141)  -->
  <defs>
    <style>
      .st0 {
        fill: none;
      }

      .st1 {
        fill: #fff;
      }

      .st2 {
        fill: #029048;
      }
    </style>
  </defs>
  <rect class="st0" x=".1" y="-.01" width="235.28" height="126.98"/>
  <path class="st1" d="M43.82,80.1c.24.79-.4,2.32.05,3.21-.38-.01-2.83.43-3.19.12-.36-.32-1.31-.99-.36-1.51.95-.51,3.36-1.44,3.49-1.82"/>
  <path class="st1" d="M67.13,80.02c.28,2.54-.15,2.82-.12,3.55.24.06,2.18.46,2.87.1.69-.37,1.16-1.27.84-1.64-.32-.37-1.9-1.38-2.53-1.48-.63-.11-.88-.34-1.06-.53"/>
  <path d="M39.69,65.3c0,7.94,9.8,16.7,15.67,17h-.02c5.87-.3,15.68-9.06,15.67-17,.04-10.78,0-25.63,0-25.63h-31.33v25.63Z"/>
  <path d="M101.07,39.69v.57c-2.01.03-2.73.84-2.73,2.76v8.09c0,3.71-2.36,7.7-8.87,7.7-5.72,0-8.65-3.26-8.65-7.55v-8.75c0-1.92-.54-2.22-2.58-2.25v-.57h7.7v.57h-.27c-1.65,0-2.37.45-2.37,2.19v8.33c0,4.04,2.37,6.47,6.83,6.47,3.39,0,6.83-1.41,6.83-6.5v-6.98c0-2.88-.45-3.38-2.94-3.51v-.57h7.04Z"/>
  <path d="M104.45,55.71c0,1.65.39,2.04,2.01,2.04v.57h-6.02v-.57c1.32,0,2.01-.72,2.01-1.89v-6.29c0-1.11-.12-1.32-.9-1.47l-1.02-.21v-.48l3.45-1.26h.48v2.33c2.01-1.26,3.68-2.36,5.15-2.36,2.04,0,3.2,1.5,3.2,4.49,0,3.98-.21,4.76-.24,5.93-.03.81.45,1.2,1.68,1.2h.66v.57h-6.44v-.57c.87-.03,1.37-.24,1.7-.57.57-.57.63-2.76.63-6.74,0-2.4-1.17-3.15-2.37-3.15-.96,0-2.42.84-3.98,1.92v6.5Z"/>
  <path d="M120.26,56.04c0,1.05.57,1.71,2.16,1.71v.57h-6.65v-.57c1.83,0,2.49-.6,2.49-2.19v-6.02c0-1.17-.15-1.32-.93-1.47l-1.41-.27v-.48l3.89-1.35h.45v10.06ZM119.03,39.23c.72,0,1.32.51,1.32,1.14s-.6,1.14-1.32,1.14-1.29-.51-1.29-1.14.57-1.14,1.29-1.14Z"/>
  <path d="M128.51,58.58l-4.34-9.94c-.45-1.05-.84-1.41-1.32-1.5l-.93-.15v-.54h6.11v.54c-1.83.06-2.4.3-1.68,1.7l3.18,7.46,3.05-6.92c.54-1.23.27-2.1-1.91-2.25v-.54h5.21v.54c-1.14.21-1.8.87-2.37,2.19l-4.13,9.4h-.87Z"/>
  <path d="M137.7,50.71c-.06.45-.12.87-.12,1.26,0,3.12,2.18,5.21,4.55,5.21,1.5,0,2.67-.6,3.81-1.95l.33.36c-1.26,1.59-3.14,3.09-5.33,3.09-2.94,0-5.21-2.67-5.21-6.14,0-3.18,2.13-6.41,5.78-6.41,4.04,0,3.95,2.9,4.94,3.89v.69h-8.75ZM143.93,49.93c-.33-1.95-1.53-3.24-2.97-3.24-.99,0-2.48.45-3.17,3.24h6.14Z"/>
  <path d="M151.9,56.13c0,1.23.45,1.62,1.95,1.62h1.14v.57h-7.1v-.57c1.53-.03,2.01-.66,2.01-2.25v-6.92l-2.01-.72v-.51l3.41-1.2h.6v3.17h.06c1.5-2.46,1.86-3.02,2.85-3.02.36,0,.45.03,1.02.27.3.12.84.24,1.56.45l-.72,1.8c-.45-.06-1.02-.21-1.59-.48-.33-.15-.69-.3-1.05-.3-.54,0-.87.36-1.17.78-.39.54-.72,1.05-.96,1.5v5.81Z"/>
  <path d="M159.07,55.29c.36,1.8,1.5,2.82,2.84,2.82,1.2,0,2.13-.9,2.13-1.98,0-.63-.15-1.02-.96-1.83-2.13-2.13-4.49-2.34-4.49-4.82,0-1.98,1.56-3.35,3.83-3.35.81,0,1.65.18,2.4.48l.06,2.72h-.51c-.21-1.53-1.2-2.48-2.4-2.48-.99,0-1.83.69-1.83,1.68,0,2.64,5.57,3.09,5.57,6.74,0,1.95-1.62,3.42-3.71,3.42-.57,0-.99-.09-1.32-.21-.33-.09-.57-.18-.81-.18-.18,0-.36.12-.51.36h-.45l-.33-3.36h.48Z"/>
  <path d="M171.65,56.04c0,1.05.57,1.71,2.16,1.71v.57h-6.65v-.57c1.83,0,2.49-.6,2.49-2.19v-6.02c0-1.17-.15-1.32-.93-1.47l-1.41-.27v-.48l3.89-1.35h.45v10.06ZM170.42,39.23c.72,0,1.32.51,1.32,1.14s-.6,1.14-1.32,1.14-1.29-.51-1.29-1.14.57-1.14,1.29-1.14Z"/>
  <path d="M181.65,46.45l-.48,1.32h-3.22v6.98c0,1.89,1.35,2.52,1.98,2.52.66,0,1.26-.51,1.83-1.5l.48.45c-.72,1.56-1.89,2.46-3.27,2.46-1.76,0-3.02-1.47-3.02-3.47v-7.43h-1.38v-.48c1.17-.57,2.19-1.95,2.88-3.8h.51v2.97h3.7Z"/>
  <path d="M192.83,49.78c.9-2.28.33-2.73-1.44-2.78v-.54h4.97v.54c-1.23.15-1.92.99-2.48,2.4l-5.09,12.7c-.89,2.22-1.59,3.21-2.63,3.21-.72,0-1.23-.45-1.23-1.05,0-1.23,1.74-.93,2.48-1.68.33-.33.78-1.11,1.02-1.71l.9-2.25-4.64-9.85c-.57-1.23-1.11-1.74-2.37-1.77v-.54h6.02v.54c-1.83.03-2.04.57-1.44,1.83l3.38,7.31,2.54-6.35Z"/>
  <path d="M86.27,68.44c.87,0,2.73,1.2,2.73,4.41,0,5.69-5.66,8.18-7.07,8.18s-2.67-2.25-2.67-4.73c0-4.85,5.21-7.85,7.01-7.85ZM84.74,69.55c-1.89,0-3.56,3.62-3.56,6.62,0,2.51,1.08,3.74,2.1,3.74,2.4,0,3.8-3.89,3.8-6.65,0-2.1-1.02-3.71-2.34-3.71Z"/>
  <path d="M90.06,69.79l.09-.57c.72-.09,1.44-.21,2.19-.39.45-2.46,1.35-5.03,3.02-6.71,1.05-1.05,2.37-1.62,3.53-1.62s2.13.66,2.13,1.44c0,.48-.36.87-.84.87-.99,0-1.8-1.23-2.66-1.23-1.17,0-2.13,1.32-2.55,3.29l-.81,3.92h2.58l-.3.99h-2.46l-1.53,8.75c-1.17,6.71-4.58,9.1-7.4,9.1-1.26,0-2.31-.63-2.31-1.38,0-.48.48-.9.99-.9,1.11,0,1.71,1.32,2.84,1.32.69,0,1.29-.33,1.83-.87,1.5-1.5,2.07-6.62,2.18-7.34l1.53-8.69h-2.07Z"/>
  <path d="M118.67,79.25c-2.96,1.53-6.77,1.89-8.03,1.89-6.56,0-9.61-5.06-9.61-9.43s3.15-10.12,10.45-10.12c3.2,0,5.33,1.02,5.96,1.02.27,0,.51-.06.69-.21h.42v4.85h-.6c-.81-3.74-3.36-4.91-6.14-4.91-5.27,0-7.97,4.37-7.97,9.2,0,6.14,4.31,8.86,7.76,8.86,1.38,0,2.9-.3,4.58-1.14v-3.77c0-1.71-.6-2.28-2.4-2.28h-1.11v-.54h8.09v.54c-1.5.09-2.1.6-2.1,1.89v4.16Z"/>
  <path d="M125.27,78.3c0,1.23.57,1.8,1.74,1.8h.51v.57h-6.74v-.57c1.92,0,2.48-.57,2.48-2.01v-14.46c0-.84-.09-1.11-.93-1.2l-1.35-.15v-.51l3.83-1.23h.45v17.76Z"/>
  <path d="M128.99,72.37c-.06-.18-.09-.27-.09-.42,0-1.05,2.49-3.48,4.43-3.48.9,0,2.31.42,3.14,1.59.45.63.45,1.02.45,2.57v4.01c0,2.4,0,2.94.78,2.94.33,0,.72-.03,1.47-.66l.15.45c-1.61,1.32-2.46,1.65-2.97,1.65-1.23,0-1.35-1.35-1.38-1.83-2.07,1.7-2.67,1.83-3.48,1.83-1.74,0-2.78-.99-2.78-2.46,0-1.83,1.62-2.46,3.53-2.94.63-.15,1.62-.51,2.67-1.14v-2.37c0-.84,0-1.32-.51-1.92-.39-.48-1.02-.87-1.68-.87-.99,0-1.86.84-1.86,1.46,0,.18.03.3.15.57l-2.04.99ZM134.92,75.09c-.57.33-1.05.54-1.77.84-1.83.75-2.52,1.05-2.52,2.28,0,1.08.87,1.76,1.77,1.76.48,0,.84-.15,2.52-1.32v-3.57Z"/>
  <path d="M140.8,77.64c.36,1.8,1.5,2.82,2.85,2.82,1.2,0,2.13-.9,2.13-1.98,0-.63-.15-1.02-.96-1.83-2.12-2.12-4.49-2.34-4.49-4.82,0-1.98,1.56-3.36,3.83-3.36.81,0,1.65.18,2.4.48l.06,2.73h-.51c-.21-1.53-1.2-2.49-2.4-2.49-.99,0-1.83.69-1.83,1.68,0,2.64,5.57,3.08,5.57,6.74,0,1.94-1.62,3.41-3.71,3.41-.57,0-.99-.09-1.32-.21-.33-.09-.57-.18-.81-.18-.18,0-.36.12-.51.36h-.45l-.33-3.36h.48Z"/>
  <path d="M161.83,71.26c-.45-.03-1.86-.15-3-.36.18.33.51.96.51,1.92,0,2.22-1.91,4.35-5.24,4.35-.57,0-.84-.06-1.38-.24-.48.51-1.83.84-1.83,1.53,0,.75,1.29,1.05,4.28,1.08,3.39.03,4.55.18,5.45,1.08.72.72.9,1.47.9,2.09,0,1.95-2.64,4.94-8.18,4.94-3.11,0-4.61-1.38-4.61-2.85,0-1.74,1.83-2,3.2-3.68-1.62-.15-2.84-1.17-2.84-2.13,0-1.38,2.01-1.44,3.06-2.22-1.83-.72-2.88-2.01-2.88-3.71,0-2.58,2.31-4.58,5.27-4.58,1.38,0,2.55.42,3.36,1.2,1.35,0,2.61-.15,3.92-.3v1.89ZM155.03,86.8c2.55,0,4.94-1.68,4.94-3.56,0-1.11-.93-1.68-2.01-1.77-.78-.09-4.55-.12-5.42-.24-.84.99-1.95,1.41-1.95,2.57,0,1.41,1.98,3,4.43,3ZM154.19,69.04c-1.14,0-2.91.63-2.91,3.41,0,1.77.9,4.13,3.18,4.13,1.74,0,2.87-1.44,2.87-3.51,0-2.57-1.32-4.04-3.15-4.04Z"/>
  <path d="M168.9,68.47c3.65,0,6.44,2.73,6.44,6.29s-2.78,6.26-6.35,6.26-6.56-2.7-6.56-6.2c0-4.13,3.35-6.35,6.47-6.35ZM169.32,80.3c1.77,0,3.77-1.8,3.77-4.79,0-3.41-2.09-6.32-4.61-6.32-1.98,0-3.81,2.04-3.81,4.61,0,3.62,2.07,6.5,4.64,6.5Z"/>
  <path d="M189.24,80.93l-3.57-8.45-3.59,8.45h-.84l-4.47-10.07c-.42-.93-.84-1.38-2.22-1.53v-.54h5.81v.54c-1.77.09-1.89.6-1.26,2l3.23,7.22,2.94-6.95c-.66-1.52-1.17-2.07-2.22-2.19l-.72-.09v-.54h6.2v.54c-1.47.03-1.91.48-1.29,1.97l2.93,7.13,2.88-7.01c.66-1.59.15-2.1-1.74-2.1v-.54h5.03v.54c-1.14.12-1.86.69-2.46,2.15l-3.86,9.44h-.81Z"/>
  <rect x="55.16" y="50.49" width="1" height="27.6"/>
  <path class="st1" d="M61.78,59.99h4.92c1.45,0,1.58.2,1.69.51-.06-.48-.37-2.96-.59-4.75-.06-.47-.22-1.76-.87-2.52-.21-.25-.3-.37-.75-.56.03-.1.44-1.1.73-1.9.15-.41-.01-.82-.33-1.01-.27-.16-.63-.17-.88-.17-1.69,0-2.99,0-3.51,0-.9,0-1.32.57-1.04,1.27.21.52.56,1.42.72,1.83-1.11.37-1.47,1.88-1.64,3.19-.27,2.21-.63,5.16-.66,5.33-.04.28-.09.51.38.53.87.06,1.89.06,3.61.02.17.09.38.15.66.14.28,0,.48-.08.63-.18.7-.03,1.5-.06,2.41-.09-.8-.02-1.55-.04-2.25-.06.25-.31.22-.74.2-.82-.1,1.15-1.6,1.04-1.23-.18-.16,0-.58,0-.84.22-.07.18-.05.48.12.72-.97-.04-1.77-.08-2.35-.11-.3-.01-.44-.23-.29-.43.63-.82.66-.97,1.14-.97M62.23,50.32c.89,0,2.33,0,3.26,0,.29,0,.76-.09.5.55-.24.57-.58,1.35-.72,1.69-.49,0-2.49,0-2.49,0-.16-.37-.39-.9-.68-1.56-.15-.36-.23-.68.13-.68Z"/>
  <path class="st1" d="M55.42,77.97c0,.32-.22.59-.48.59s-.49-.26-.49-.59v-2.74c0-.32.22-.59.49-.59s.48.26.48.59v2.74"/>
  <path class="st1" d="M48.67,45.45c.16-.07.38-.05.58-.05-.23-.19-.43-.26-.56-.29-.29-1.1-1.88-.8-2.03.17-.06.35-1.3.51-2.73,2.41-.66.88-1.57,1.64-1.84,1.81-.28.17.4.12.71-.21.29.29.87-.59,1.73-.74.23-.04,3.1-.56,2.34-2.2,1.01,1.3-.67,2.24-1.74,2.34.09.05.65.09.71.12.16.06-.05.25.08.32.31.17.92.75.92.75,0,0,.35-.12.19-.28-.47-.31-.6-.41-.72-.6,0-.01-.16-.3.15-.38.45-.04,1.92-.56,1.67-2.41-.04-.29.16-.61.53-.77"/>
  <path d="M48.45,45.14c0,.1-.07.17-.16.17s-.16-.08-.16-.17.07-.17.16-.17.16.08.16.17"/>
  <rect class="st1" x="55.87" y="74.54" width=".53" height="3.88"/>
  <path class="st1" d="M56.87,79.02c.16-.17.25-.39.25-.64,0-.51-.41-.92-.92-.92h-1.57c-.51,0-.92.41-.92.92,0,.24.09.45.24.62-.19.17-.53.5-.62.61,1.05.46,3.05.43,4.18,0-.11-.09-.47-.42-.64-.58"/>
  <path class="st1" d="M55.4,47.2s0,.02,0,0c-.68-.61-2.87-.87-4.28-.51.09.17.21.72.27.94,2.08-.69,4.01.32,4.01.32,0,0,0-.01,0-.02,0,0,0,.02,0,.02,0,0,1.93-1.01,4.01-.32.06-.22.17-.76.27-.93-1.41-.36-3.6-.1-4.28.51"/>
  <rect class="st1" x="56.03" y="50.49" width=".31" height="21.39"/>
  <rect class="st1" x="54.47" y="50.49" width=".99" height="19.84"/>
  <path d="M56.41,58.12c.06-.23.1-.81,0-.99-.46,0-1.19,0-1.61,0,.96.35,1.61.99,1.61.99"/>
  <path d="M52.93,75.79c.55.08,3.53.22,3.53.22l.49,1.26s-2.6-.07-4.02-1.49"/>
  <path class="st1" d="M65.11,66.74c-.93-.6-2.06-.14-3.28-1.16,0,3.18,2.32,3.82,1.02,4.67-1.16.76-2.29.95-3.46.85.1-.16.27-.45.41-.59-1.43-.18-2.68-.08-3.21-.02-1.79-.52-3.77-1.19-6.15-1.22.43.35.86.97.86,2.02-.36-1.43-1.84-2.17-2.57-2.45-.22-.08-.42-.12-.63-.16-.11.15-.34.39-.72.53-.22-.12-.4.09-.37.16.01.03,0,.07-.02.1-.21.28-.91.14-1.43-.04-.6-.21-.58.21-.46.41.19.33.37.55.46.73.8,1.63,1.39,2.69,3.15,3.7,1.68,1.24,3.79,1.88,5.93,1.95.78.28,2.58.78,4.84.42-.44-.29-.88-.59-1.02-.88,2.87-.83,5.34-2.71,6.36-5.55.01-.03.02-.06.03-.09.18-.62-.42-1.45-1.28-.63.74-1.78,1.97-1.01,1.71.04.98-1.32,2.29-2.73,4.04-3.27-1.6-.74-3.17-.1-4.2.47"/>
  <path d="M56.44,63.96c.07-.23.09-.81,0-.99-.47,0-1.19,0-1.61,0,.96.35,1.61.99,1.61.99"/>
  <path class="st1" d="M57.11,62.08c0,.51-.42.93-.94.93h-1.59c-.52,0-.94-.41-.94-.93s.42-.92.94-.92h1.59c.52,0,.94.41.94.92"/>
  <path d="M56.15,62.69c-.93,0-1.73,0-1.73,0,0,0,1.31-.08,2.15-.97.22.15.26.97-.41.97"/>
  <path d="M56.45,69.88c.07-.23.09-.81,0-.99-.47,0-1.19,0-1.61,0,.96.35,1.61.99,1.61.99"/>
  <path class="st1" d="M57.13,67.97c0,.51-.42.92-.93.92h-1.59c-.52,0-.93-.41-.93-.92s.42-.92.93-.92h1.59c.52,0,.93.41.93.92"/>
  <path d="M56.16,68.59c-.93,0-1.73,0-1.73,0,0,0,1.31-.07,2.15-.97.22.15.26.97-.41.97"/>
  <rect class="st1" x="53.99" y="51.99" width="2.81" height="2.76"/>
  <path class="st1" d="M56.8,54.74c-.48.12-.45.51-.46.66,0,0-1.13,0-1.88,0,0-.04.02-.59-.47-.66,0,0,2.63,0,2.81,0Z"/>
  <rect x="55.63" y="51.99" width=".76" height="2.79"/>
  <path class="st1" d="M46.57,67.28c-.3.13-.54.4-.67.75-.14.35-.14.71,0,1.01.09.21.26.38.46.46.2.08.43.07.65-.03.3-.13.54-.4.68-.75.24-.62.03-1.28-.46-1.47-.2-.08-.43-.07-.65.03M46.49,69.15c-.14-.05-.22-.17-.26-.26-.09-.2-.09-.47.01-.73.1-.25.28-.45.48-.54.09-.04.23-.07.37-.02.21.08.32.31.32.59,0,.13-.02.26-.08.4-.1.25-.28.46-.48.55-.09.04-.23.08-.37.02Z"/>
  <path class="st1" d="M46.99,69.05c-.16-.05-.55-.16-1.02-.18-.33-.01-.66-.2-.64-.3.02-.07.11-.11.25-.13.32-.05,1.02,0,1.77.11-.06.18-.17.35-.36.49"/>
  <path class="st1" d="M57.14,56.22c0,.51-.42.93-.94.93h-1.59c-.52,0-.94-.42-.94-.93s.42-.92.94-.92h1.59c.52,0,.94.41.94.92"/>
  <path d="M56.17,56.83c-.93.01-1.74,0-1.74,0,0,0,1.31-.08,2.15-.97.22.15.26.97-.41.97"/>
  <path class="st1" d="M49.94,69.61c1.01.68,1.36,1.68,1.36,1.68,0,0,.34-.83-.12-1.48.92-.27,2.52.15,3.97.72,2.12.83,3.71,1.11,5.32.83,1.61-.27,2.46-.61,2.98-1.42.28-.43,1.09-.34.86.31-.23.65-1.23,2.49-3.12,3-1.89.51-5.01,1.35-9.63.2-1.23-.31-4.14-1.08-5.32-2.6-.24-.31-.3-.87-.31-.96-.01-.11.06-.17.32-.12.81.14.97-.17,1.27-.51.33-.04,1.51-.25,2.43.37"/>
  <path d="M63.97,70.11c-1.41,2.68-4.14,3.1-6.99,3.19-1.16.03-2.31-.11-3.31-.37.84.09,1.71.02,2.24-.17-.21-1.08-2.04-1.86-3.32-1.93-.24-.28-.31-.64-.9-.84.42.38.38.91.59,1.19,1.05.21,2.33.48,2.94,1.3-.22.28-2.11.12-3.15-.11-.45-.16-.91-.43-1.16-.91-.49.55-1.28.35-2.08-.05-.01-.31-.2-.59-.62-.67.09.14.11.28.11.39-.91-.52-1.78-1.17-2.21-1.13-.62.05,1.35,3.5,3.01,3.87,4.94,2.85,13.18,1.6,15.14-3.21.28-.69.03-1.14-.28-.55Z"/>
  <path class="st1" d="M48.38,71.09c.03.3-.21.57-.53.6-.32.04-.6-.19-.63-.49-.03-.3.21-.57.53-.6.32-.03.6.19.64.49"/>
  <path d="M48.11,71.15c0,.15-.14.27-.31.27s-.3-.12-.3-.27.14-.27.3-.27.31.12.31.27"/>
  <path class="st1" d="M62.25,66.23c-.34,1.17,1.11,2.74,1.11,2.74,0,0-.65-2.04-1.11-2.74"/>
  <path class="st1" d="M63.26,66.48c-.5.68.44,2.24.44,2.24,0,0-.05-1.25-.44-2.24"/>
  <path class="st1" d="M64.83,68.26c.39-.85,1.18-1.71,2.01-2.01-1.73.21-2.12,1.36-2.01,2.01"/>
  <path class="st1" d="M55.39,42.36c-.73-1.42-1.78-.33-3.61-.89-.32,1.5-.65,4.18-.74,4.64,1.25.38,2.35-.79,3.84.18-.16-1.93.46-3.54.46-3.54,0,0,.02-.24.04-.39"/>
  <path class="st1" d="M59,41.46c-1.83.57-2.88-.52-3.61.89,0,.48,0,4.05,0,4.32,1.76-1.64,2.96-.16,4.34-.57-.09-.46-.42-3.14-.74-4.64"/>
  <rect class="st1" x="54.89" y="49.3" width="1.02" height="1.18"/>
  <polygon class="st1" points="55.4 48.17 55.91 49.06 54.88 49.06 55.4 48.17"/>
  <path class="st2" d="M46.84,51.67h0s0,0,0,0"/>
  <path class="st1" d="M50.93,57.46s1.4-.69,1.53-1.4c-.43-.41-1.52-.46-1.52-.46,0,0,1.25-.95,1.2-1.65-.63-.29-1.74-.12-1.74-.12.52-.72.66-1.28.64-1.78-.65-.11-1.66.28-1.66.28,0,0,.34-1.2,0-1.82-.6-.16-1.45.9-1.45.9,0,0-.3-1.31-1.01-2.01-.71.7-1.02,2.01-1.02,2.01,0,0-.85-1.06-1.45-.9-.33.62,0,1.82,0,1.82,0,0-1.01-.39-1.66-.28-.02.5.13,1.07.65,1.78,0,0-1.12-.17-1.74.12-.05.69,1.2,1.65,1.2,1.65,0,0-1.09.05-1.52.46.14.71,1.54,1.4,1.54,1.4,0,0-.83.17-1.34.75.32.43,1.05.84,1.62.93-.49.4-.77.71-.89.94.8.65,2.48.74,4.15.22,0,.32,0,2.91-.39,4.09h1.69c-.39-1.19-.39-3.77-.39-4.09,1.68.52,3.35.43,4.15-.22-.13-.23-.4-.54-.89-.94.57-.09,1.29-.5,1.62-.93-.51-.58-1.34-.75-1.34-.75"/>
  <path d="M49.41,57.51c.16-.09.97-.33,1.38-1.06-.41-.4-1.38-.42-1.38-.42,0,0,.86-.57,1.15-1.42-.74-.22-1.51,0-1.51,0,0,0,.63-.89.71-1.65-.71.08-1.46.45-1.46.45.21-.47.32-1.12.23-1.7-.35.07-.68.47-.87.72-.18-.57-.48-.75-.69-.87-.34.51-.41.84-.37,1.53.12-.12.3-.3.6-.47.18.99-.17,1.71-.17,1.71,0,0,.44-.28,1.01-.35.02.55-.18,1.11-.75,1.78,0,0,.51-.31,1.09-.35-.09.77-.56,1.28-1.05,1.72.32-.15.88-.14,1.26-.01-.2.58-.66.88-1.32,1.24.41,0,.84.05,1.07.22-.27.5-.92.74-1.37.87,1.05.4,2.06.57,3.05.32-.07-.3-.45-.66-.88-.91.4-.09,1-.22,1.52-.66-.34-.34-.75-.57-1.26-.71"/>
  <path d="M70.14,81.23c-1.05-.57-2.62-.91-3.51-2.12-.33,1.22.47,1.92.44,3.71.75-1.39.13-1.73.26-2.39.6.77,1.5.88,2.13,1.2.8.42,1.29,1.35-.37,1.34-3.24,0-24.06,0-27.37,0-1.71,0-1.21-.92-.41-1.34.63-.33,1.54-.44,2.14-1.22.13.66-.5,1,.25,2.39-.03-1.79.76-2.46.45-3.69-.88,1.21-2.48,1.55-3.53,2.12-.9.48-.9.8-.9,2.33,0,1.03,0,2.33,0,3.2,0,.61.71.98,1.56.95h28.21c.85.02,1.57-.33,1.57-.94,0-.87,0-2.19,0-3.22.01-1.58-.02-1.85-.92-2.33"/>
  <path class="st1" d="M41.29,84.3h.6l.42,1.17s.03.12.07.28c.04-.16.07-.26.08-.28l.41-1.17h.61l-.87,2.09h-.43l-.88-2.09"/>
  <rect class="st1" x="43.8" y="84.3" width=".58" height="2.09"/>
  <path class="st1" d="M45.46,84.3h.71l.72,2.09h-.57l-.1-.38h-.81l-.11.38h-.57l.72-2.09M46.1,85.62l-.21-.69s-.03-.13-.07-.28c-.04.15-.06.25-.07.28l-.21.69h.57Z"/>
  <path class="st1" d="M48.02,84.3h.61l.42,1.17s.03.12.07.28c.04-.16.06-.26.07-.28l.41-1.17h.6l-.88,2.09h-.43l-.88-2.09"/>
  <polyline class="st1" points="50.52 84.3 51.8 84.3 51.8 84.76 51.07 84.76 51.07 85.13 51.76 85.13 51.76 85.57 51.07 85.57 51.07 85.93 51.8 85.93 51.8 86.39 50.52 86.39 50.52 84.3"/>
  <path class="st1" d="M52.32,84.3h.63c.29,0,.51,0,.69.14.15.12.23.3.23.51,0,.32-.16.53-.47.59l.57.84h-.64l-.48-.82v.82h-.53v-2.09M52.96,85.29c.24,0,.35-.07.35-.26,0-.22-.11-.29-.34-.29h-.11v.55h.11Z"/>
  <rect class="st1" x="54.35" y="84.3" width=".58" height="2.09"/>
  <polyline class="st1" points="55.84 84.8 55.37 84.8 55.37 84.3 56.87 84.3 56.87 84.8 56.41 84.8 56.41 86.39 55.84 86.39 55.84 84.8"/>
  <path class="st1" d="M57.77,84.3h.71l.72,2.09h-.56l-.11-.38h-.81l-.11.38h-.57l.72-2.09M58.41,85.62l-.21-.69s-.03-.13-.07-.28c-.04.15-.06.25-.07.28l-.21.69h.57Z"/>
  <path class="st1" d="M60.14,86c.16,0,.26-.09.26-.21,0-.17-.11-.22-.35-.28-.37-.1-.56-.25-.56-.58,0-.39.28-.68.72-.68.23,0,.44.06.62.19l-.18.41c-.13-.11-.27-.17-.4-.17-.14,0-.23.08-.23.18,0,.15.15.18.33.23.37.1.58.23.58.62,0,.43-.31.74-.8.74-.29,0-.52-.1-.74-.31l.26-.42c.17.19.33.28.5.28"/>
  <path class="st1" d="M62.18,84.3h.6l.42,1.17s.03.12.07.28c.04-.16.06-.26.07-.28l.42-1.17h.61l-.88,2.09h-.43l-.88-2.09"/>
  <rect class="st1" x="64.69" y="84.3" width=".58" height="2.09"/>
  <polyline class="st1" points="66.17 84.8 65.71 84.8 65.71 84.3 67.21 84.3 67.21 84.8 66.74 84.8 66.74 86.39 66.17 86.39 66.17 84.8"/>
  <path class="st1" d="M68.11,84.3h.71l.72,2.09h-.57l-.1-.38h-.81l-.11.38h-.57l.72-2.09M68.75,85.62l-.21-.69s-.03-.13-.07-.28c-.04.15-.07.25-.07.28l-.21.69h.56Z"/>
  <path d="M56.53,77.88c.14.16.23.94-.44.99-1.15.09-1.71-.02-1.71-.02,0,0,1.55-.18,2.15-.97"/>
  <path d="M61.73,54.16c.07-.95.52-1.17,1.13-1.15.34,0,.87.01,2.13,0-.71.06-1.6.44-1.71,1.36-.11.86-.11,3.83-.14,5.1-.62.02-1.46,0-1.64.05.09-1.32.16-4.41.23-5.36"/>
  <metadata>
    <sfw xmlns="http://ns.adobe.com/SaveForWeb/1.0/">
      <slices/>
      <sliceSourceBounds x="-8050.82" y="-102.02" width="16577.11" height="136.49" bottomLeftOrigin="true"/>
    </sfw>
  </metadata>
</svg>