<?xml version="1.0" encoding="UTF-8"?>
<svg id="Layer_1" xmlns="http://www.w3.org/2000/svg" version="1.1" viewBox="0 0 235.28 126.98">
  <!-- Generator: Adobe Illustrator 29.5.1, SVG Export Plug-In . SVG Version: 2.1.0 Build 141)  -->
  <defs>
    <style>
      .st0 {
        fill: none;
      }

      .st1 {
        fill: #e19f34;
      }

      .st2 {
        fill: #7fc142;
      }

      .st3 {
        fill: #ee402c;
      }

      .st4 {
        fill: #01964b;
      }

      .st5 {
        fill: #0098d5;
      }

      .st6 {
        fill: #fff;
      }

      .st7 {
        fill: #011451;
      }

      .st8 {
        fill: #99d9f7;
      }

      .st9 {
        fill: #ffce38;
      }

      .st10 {
        fill: #029048;
      }
    </style>
  </defs>
  <rect class="st0" x=".14" y="-.16" width="235.28" height="126.98"/>
  <path class="st7" d="M39.64,64.89c0,7.92,9.78,16.65,15.63,16.95h-.02c5.85-.3,15.64-9.04,15.63-16.95.04-10.75,0-25.56,0-25.56h-31.25v25.56h.01Z"/>
  <path class="st7" d="M100.82,39.33v.56c-2,.03-2.72.84-2.72,2.75v8.07c0,3.7-2.36,7.68-8.84,7.68-5.71,0-8.63-3.26-8.63-7.53v-8.72c0-1.91-.54-2.21-2.57-2.24v-.56h7.68v.56h-.27c-1.64,0-2.36.45-2.36,2.18v8.3c0,4.03,2.36,6.45,6.81,6.45,3.38,0,6.81-1.4,6.81-6.48v-6.96c0-2.87-.45-3.37-2.93-3.5v-.56h7.02Z"/>
  <path class="st7" d="M104.19,55.31c0,1.64.39,2.03,2,2.03v.57h-6v-.57c1.31,0,2-.72,2-1.88v-6.27c0-1.11-.12-1.32-.9-1.46l-1.02-.21v-.48l3.44-1.26h.48v2.33c2-1.25,3.67-2.36,5.14-2.36,2.03,0,3.2,1.49,3.2,4.48,0,3.97-.21,4.75-.24,5.92-.03.81.45,1.2,1.67,1.2h.66v.57h-6.42v-.57c.86-.03,1.37-.24,1.7-.57.57-.57.63-2.75.63-6.72,0-2.39-1.16-3.14-2.36-3.14-.95,0-2.42.84-3.97,1.91v6.48h-.01Z"/>
  <path class="st7" d="M119.96,55.64c0,1.05.57,1.71,2.15,1.71v.57h-6.63v-.57c1.82,0,2.48-.6,2.48-2.18v-6c0-1.17-.15-1.31-.92-1.47l-1.4-.27v-.48l3.88-1.35h.45v10.04h-.01ZM118.73,38.88c.72,0,1.31.51,1.31,1.14s-.59,1.13-1.31,1.13-1.29-.51-1.29-1.13.57-1.14,1.29-1.14Z"/>
  <path class="st7" d="M128.19,58.18l-4.33-9.92c-.45-1.05-.84-1.41-1.32-1.5l-.93-.15v-.54h6.09v.54c-1.82.06-2.39.3-1.67,1.7l3.17,7.44,3.04-6.9c.54-1.23.27-2.09-1.91-2.24v-.54h5.2v.54c-1.13.21-1.8.86-2.36,2.18l-4.12,9.38h-.87.01Z"/>
  <path class="st7" d="M137.35,50.33c-.06.45-.12.87-.12,1.25,0,3.11,2.18,5.2,4.54,5.2,1.5,0,2.66-.6,3.8-1.94l.33.36c-1.25,1.59-3.14,3.08-5.32,3.08-2.93,0-5.2-2.66-5.2-6.13,0-3.17,2.12-6.39,5.76-6.39,4.03,0,3.94,2.9,4.93,3.88v.69h-8.73.01ZM143.57,49.55c-.33-1.94-1.52-3.23-2.96-3.23-.99,0-2.48.45-3.17,3.23h6.13Z"/>
  <path class="st7" d="M151.51,55.73c0,1.22.45,1.62,1.94,1.62h1.13v.57h-7.08v-.57c1.52-.03,2-.66,2-2.24v-6.9l-2-.72v-.51l3.4-1.19h.6v3.17h.06c1.49-2.45,1.85-3.02,2.84-3.02.36,0,.45.03,1.02.27.3.12.84.24,1.55.45l-.71,1.79c-.45-.06-1.02-.21-1.59-.48-.33-.15-.69-.3-1.05-.3-.53,0-.86.36-1.16.78-.39.54-.71,1.05-.95,1.49v5.8h0Z"/>
  <path class="st7" d="M158.66,54.9c.36,1.8,1.49,2.81,2.84,2.81,1.2,0,2.12-.9,2.12-1.97,0-.63-.15-1.02-.96-1.82-2.12-2.12-4.48-2.33-4.48-4.81,0-1.97,1.56-3.34,3.82-3.34.81,0,1.64.18,2.39.48l.06,2.72h-.51c-.21-1.52-1.19-2.48-2.39-2.48-.98,0-1.82.69-1.82,1.67,0,2.63,5.55,3.08,5.55,6.72,0,1.94-1.61,3.41-3.7,3.41-.57,0-.98-.09-1.31-.21-.33-.09-.57-.18-.8-.18-.18,0-.36.12-.51.36h-.45l-.33-3.35h.48Z"/>
  <path class="st7" d="M171.21,55.64c0,1.05.57,1.71,2.15,1.71v.57h-6.63v-.57c1.82,0,2.48-.6,2.48-2.18v-6c0-1.17-.15-1.31-.93-1.47l-1.41-.27v-.48l3.88-1.35h.45v10.04h.01ZM169.99,38.88c.72,0,1.31.51,1.31,1.14s-.6,1.13-1.31,1.13-1.28-.51-1.28-1.13.57-1.14,1.28-1.14Z"/>
  <path class="st7" d="M181.18,46.08l-.48,1.31h-3.22v6.96c0,1.88,1.35,2.51,1.97,2.51.66,0,1.25-.51,1.82-1.5l.48.45c-.72,1.56-1.88,2.45-3.26,2.45-1.76,0-3.02-1.46-3.02-3.47v-7.41h-1.37v-.48c1.17-.57,2.18-1.94,2.87-3.79h.51v2.96h3.7Z"/>
  <path class="st7" d="M192.33,49.4c.9-2.27.33-2.72-1.43-2.78v-.54h4.96v.54c-1.22.15-1.91.99-2.48,2.39l-5.08,12.67c-.89,2.21-1.58,3.2-2.63,3.2-.72,0-1.22-.45-1.22-1.05,0-1.22,1.73-.92,2.48-1.67.33-.33.78-1.1,1.02-1.7l.9-2.24-4.63-9.82c-.57-1.22-1.1-1.73-2.36-1.76v-.54h6v.54c-1.82.03-2.03.57-1.43,1.82l3.38,7.29,2.54-6.33-.02-.02Z"/>
  <path class="st7" d="M86.06,68.01c.87,0,2.72,1.19,2.72,4.39,0,5.67-5.65,8.15-7.05,8.15s-2.66-2.24-2.66-4.72c0-4.84,5.2-7.83,6.99-7.83h0ZM84.54,69.12c-1.88,0-3.55,3.61-3.55,6.6,0,2.51,1.07,3.73,2.09,3.73,2.39,0,3.79-3.88,3.79-6.63,0-2.09-1.02-3.7-2.33-3.7Z"/>
  <path class="st7" d="M89.85,69.36l.09-.57c.72-.09,1.43-.21,2.18-.39.45-2.45,1.34-5.02,3.02-6.69,1.05-1.04,2.36-1.61,3.53-1.61s2.12.66,2.12,1.43c0,.48-.36.87-.84.87-.98,0-1.79-1.23-2.66-1.23-1.17,0-2.12,1.31-2.54,3.29l-.81,3.91h2.57l-.3.99h-2.45l-1.52,8.72c-1.17,6.69-4.57,9.08-7.38,9.08-1.25,0-2.3-.63-2.3-1.37,0-.48.48-.9.99-.9,1.1,0,1.7,1.32,2.84,1.32.69,0,1.28-.33,1.82-.87,1.49-1.49,2.06-6.6,2.18-7.32l1.52-8.66s-2.06,0-2.06,0Z"/>
  <path class="st7" d="M118.37,78.79c-2.96,1.53-6.75,1.88-8,1.88-6.54,0-9.59-5.05-9.59-9.41s3.14-10.1,10.43-10.1c3.2,0,5.32,1.02,5.94,1.02.27,0,.51-.06.69-.21h.42v4.84h-.6c-.81-3.73-3.35-4.9-6.12-4.9-5.26,0-7.95,4.36-7.95,9.17,0,6.12,4.3,8.84,7.74,8.84,1.37,0,2.9-.3,4.57-1.13v-3.76c0-1.7-.6-2.27-2.39-2.27h-1.11v-.54h8.06v.54c-1.49.09-2.09.6-2.09,1.88v4.15Z"/>
  <path class="st7" d="M124.95,77.84c0,1.22.57,1.79,1.73,1.79h.51v.57h-6.72v-.57c1.91,0,2.48-.57,2.48-2v-14.43c0-.84-.09-1.1-.93-1.2l-1.34-.15v-.5l3.82-1.23h.45v17.71h0Z"/>
  <path class="st7" d="M128.67,71.93c-.06-.18-.09-.27-.09-.42,0-1.05,2.48-3.47,4.42-3.47.9,0,2.3.42,3.13,1.59.45.63.45,1.01.45,2.57v4c0,2.39,0,2.93.78,2.93.33,0,.72-.03,1.46-.66l.15.45c-1.61,1.31-2.45,1.64-2.96,1.64-1.22,0-1.34-1.35-1.37-1.82-2.06,1.7-2.66,1.82-3.47,1.82-1.73,0-2.78-.99-2.78-2.45,0-1.82,1.61-2.45,3.52-2.93.63-.15,1.61-.51,2.66-1.14v-2.36c0-.84,0-1.32-.51-1.91-.39-.48-1.01-.87-1.67-.87-.99,0-1.85.84-1.85,1.46,0,.18.03.3.15.57l-2.03.99h0ZM134.58,74.64c-.57.33-1.05.54-1.76.84-1.82.75-2.51,1.05-2.51,2.27,0,1.07.86,1.76,1.76,1.76.48,0,.84-.15,2.51-1.31v-3.56Z"/>
  <path class="st7" d="M140.44,77.18c.36,1.79,1.49,2.81,2.84,2.81,1.19,0,2.12-.9,2.12-1.97,0-.63-.15-1.02-.96-1.82-2.12-2.12-4.48-2.33-4.48-4.81,0-1.97,1.55-3.35,3.82-3.35.8,0,1.64.18,2.39.48l.06,2.72h-.51c-.21-1.52-1.19-2.48-2.39-2.48-.99,0-1.82.69-1.82,1.67,0,2.63,5.56,3.08,5.56,6.72,0,1.94-1.61,3.4-3.7,3.4-.57,0-.99-.09-1.32-.21-.33-.09-.57-.18-.81-.18-.18,0-.36.12-.51.36h-.45l-.33-3.35h.49Z"/>
  <path class="st7" d="M161.41,70.82c-.45-.03-1.85-.15-2.99-.36.18.33.51.96.51,1.91,0,2.21-1.91,4.33-5.23,4.33-.57,0-.84-.06-1.38-.24-.48.51-1.82.84-1.82,1.52,0,.75,1.28,1.05,4.27,1.08,3.38.03,4.54.18,5.44,1.08.72.72.89,1.46.89,2.09,0,1.94-2.63,4.93-8.15,4.93-3.11,0-4.6-1.37-4.6-2.84,0-1.73,1.82-2,3.2-3.67-1.61-.15-2.84-1.17-2.84-2.12,0-1.37,2-1.43,3.05-2.21-1.82-.72-2.87-2-2.87-3.7,0-2.57,2.3-4.57,5.26-4.57,1.37,0,2.54.42,3.35,1.2,1.34,0,2.6-.15,3.91-.3v1.88h0ZM154.63,86.32c2.54,0,4.93-1.67,4.93-3.55,0-1.1-.92-1.67-2-1.76-.78-.09-4.54-.12-5.4-.24-.84.98-1.94,1.4-1.94,2.57,0,1.41,1.97,2.99,4.42,2.99h0ZM153.79,68.61c-1.14,0-2.9.63-2.9,3.41,0,1.76.9,4.12,3.17,4.12,1.73,0,2.87-1.43,2.87-3.5,0-2.57-1.31-4.03-3.14-4.03Z"/>
  <path class="st7" d="M168.47,68.04c3.64,0,6.42,2.72,6.42,6.28s-2.78,6.24-6.33,6.24-6.54-2.69-6.54-6.18c0-4.12,3.35-6.34,6.45-6.34ZM168.89,79.84c1.76,0,3.76-1.79,3.76-4.78,0-3.4-2.09-6.3-4.6-6.3-1.97,0-3.8,2.03-3.8,4.6,0,3.61,2.06,6.48,4.63,6.48h.01Z"/>
  <path class="st7" d="M188.75,80.47l-3.56-8.42-3.58,8.42h-.83l-4.45-10.04c-.42-.93-.84-1.37-2.21-1.52v-.54h5.8v.54c-1.76.09-1.88.6-1.25,2l3.22,7.2,2.93-6.93c-.66-1.52-1.17-2.06-2.21-2.18l-.72-.09v-.54h6.18v.54c-1.46.03-1.91.48-1.28,1.97l2.93,7.11,2.87-6.99c.66-1.58.15-2.09-1.73-2.09v-.54h5.02v.54c-1.13.12-1.85.69-2.45,2.15l-3.85,9.41h-.83Z"/>
  <rect class="st8" x="55.03" y="50.11" width=".99" height="27.52"/>
  <path class="st9" d="M61.64,59.59h4.91c1.45,0,1.58.2,1.68.51-.06-.48-.37-2.95-.59-4.74-.06-.47-.22-1.75-.87-2.52-.2-.25-.3-.37-.74-.56.03-.1.43-1.09.73-1.9.15-.41-.01-.82-.33-1.01-.27-.16-.62-.17-.87-.17h-3.5c-.9,0-1.32.57-1.04,1.26.21.52.56,1.41.71,1.82-1.11.37-1.47,1.88-1.63,3.18-.27,2.2-.63,5.14-.65,5.32-.04.28-.09.51.37.53.87.06,1.89.06,3.6.02.17.09.38.15.66.14.28,0,.48-.08.63-.18.7-.03,1.49-.06,2.4-.09-.8-.02-1.55-.04-2.24-.06.25-.31.22-.73.2-.82-.1,1.15-1.6,1.04-1.23-.18-.16,0-.58,0-.84.22-.07.18-.05.48.12.72-.97-.04-1.77-.08-2.34-.11-.3,0-.44-.23-.29-.43.62-.82.66-.97,1.14-.97M62.09,49.94h3.25c.29,0,.76-.09.5.55-.24.56-.57,1.35-.72,1.69h-2.48c-.16-.37-.39-.89-.67-1.56-.15-.36-.23-.68.13-.68h0Z"/>
  <path class="st6" d="M55.3,77.51c0,.32-.22.59-.48.59s-.48-.26-.48-.59v-2.73c0-.32.22-.58.48-.58s.48.26.48.58v2.73"/>
  <path class="st1" d="M48.56,45.08c.15-.06.38-.05.58-.05-.23-.19-.43-.26-.55-.29-.29-1.09-1.87-.8-2.03.17-.06.35-1.3.5-2.72,2.41-.66.87-1.56,1.63-1.84,1.81-.28.17.4.12.71-.21.29.29.86-.59,1.73-.74.23-.04,3.09-.56,2.34-2.2,1.01,1.3-.67,2.23-1.73,2.33.09.05.64.09.71.12.16.06-.05.25.08.32.31.17.92.75.92.75,0,0,.35-.12.19-.28-.47-.31-.6-.41-.72-.6,0,0-.16-.3.15-.38.45-.04,1.92-.56,1.67-2.4-.04-.29.16-.61.52-.77"/>
  <path class="st7" d="M48.35,44.77c0,.1-.07.17-.16.17s-.16-.08-.16-.17.07-.17.16-.17.16.08.16.17"/>
  <rect class="st6" x="55.74" y="74.1" width=".53" height="3.87"/>
  <path class="st9" d="M56.74,78.57c.16-.17.25-.39.25-.63,0-.51-.41-.92-.92-.92h-1.56c-.51,0-.92.41-.92.92,0,.24.09.45.24.62-.19.17-.53.5-.62.61,1.05.46,3.05.43,4.17,0-.11-.09-.47-.42-.63-.58"/>
  <path class="st8" d="M55.27,46.83s0,.02,0,0c-.68-.61-2.86-.87-4.26-.51.09.17.2.72.27.93,2.07-.69,4,.32,4,.32v-.02.02s1.93-1.01,4-.32c.06-.22.17-.76.27-.93-1.41-.36-3.59-.1-4.27.51"/>
  <rect class="st6" x="55.9" y="50.11" width=".31" height="21.33"/>
  <rect class="st6" x="54.34" y="50.11" width=".99" height="19.79"/>
  <path class="st7" d="M56.28,57.72c.06-.23.09-.8,0-.98h-1.6c.96.35,1.6.99,1.6.99"/>
  <path class="st7" d="M52.81,75.34c.55.08,3.52.22,3.52.22l.48,1.26s-2.59-.07-4.01-1.48"/>
  <path class="st8" d="M64.96,66.31c-.93-.6-2.05-.14-3.27-1.16,0,3.18,2.32,3.81,1.02,4.66-1.16.76-2.28.95-3.45.85.1-.16.27-.45.41-.59-1.43-.18-2.68-.08-3.2-.02-1.78-.52-3.76-1.18-6.13-1.22.43.35.86.96.86,2.02-.36-1.42-1.84-2.16-2.56-2.45-.22-.08-.42-.12-.63-.15-.11.14-.34.39-.72.53-.22-.12-.4.09-.37.16,0,.03,0,.07-.02.1-.21.28-.91.14-1.43-.04-.6-.21-.57.21-.46.41.19.33.37.55.46.73.79,1.62,1.38,2.69,3.14,3.69,1.67,1.23,3.78,1.87,5.92,1.94.78.28,2.57.77,4.82.41-.44-.29-.87-.58-1.02-.88,2.86-.83,5.33-2.7,6.34-5.54.01-.03.02-.06.03-.09.18-.62-.42-1.44-1.27-.63.74-1.78,1.96-1.01,1.7.04.98-1.31,2.28-2.73,4.03-3.26-1.59-.73-3.16-.1-4.19.47"/>
  <path class="st7" d="M56.31,63.54c.07-.23.09-.81,0-.98h-1.6c.96.35,1.6.99,1.6.99"/>
  <path class="st9" d="M56.98,61.67c0,.51-.42.92-.93.92h-1.59c-.51,0-.93-.41-.93-.92s.42-.92.93-.92h1.59c.51,0,.93.41.93.92"/>
  <path class="st1" d="M56.02,62.28h-1.73s1.31-.08,2.14-.97c.22.15.26.96-.41.97"/>
  <path class="st7" d="M56.32,69.44c.07-.23.09-.81,0-.98h-1.6c.96.35,1.6.99,1.6.99"/>
  <path class="st9" d="M57,67.55c0,.51-.42.92-.93.92h-1.59c-.52,0-.93-.41-.93-.92s.42-.92.93-.92h1.59c.51,0,.93.41.93.92"/>
  <path class="st1" d="M56.04,68.16h-1.73s1.31-.07,2.14-.97c.22.15.26.96-.41.97"/>
  <rect class="st9" x="53.87" y="51.6" width="2.8" height="2.75"/>
  <path class="st1" d="M56.67,54.35c-.48.11-.45.51-.46.66h-1.87s.02-.59-.47-.66h2.8Z"/>
  <rect class="st1" x="55.5" y="51.6" width=".76" height="2.79"/>
  <path class="st9" d="M46.47,66.86c-.29.13-.54.4-.67.75-.14.35-.14.71,0,1.01.09.21.26.38.46.46s.43.07.65-.03c.3-.13.54-.4.68-.74.24-.62.03-1.27-.46-1.46-.2-.08-.43-.07-.65.03M46.39,68.72c-.14-.05-.22-.17-.25-.26-.09-.2-.09-.47,0-.72s.27-.45.48-.54c.09-.04.23-.07.36-.02.21.08.32.31.32.59,0,.13-.02.26-.08.4-.1.25-.28.45-.48.55-.09.04-.23.08-.37.02v-.02Z"/>
  <path class="st8" d="M46.89,68.62c-.16-.05-.55-.16-1.02-.18-.33-.01-.66-.2-.64-.3.02-.07.11-.11.24-.13.32-.05,1.02,0,1.77.11-.06.18-.16.35-.36.49"/>
  <path class="st3" d="M48.07,46.27c0,1.4-1.08,1.84-1.39,1.92.1-.31.54-1.76,1.39-1.92"/>
  <path class="st9" d="M57.01,55.83c0,.51-.42.93-.93.93h-1.58c-.52,0-.93-.42-.93-.93s.42-.92.93-.92h1.58c.52,0,.93.41.93.92"/>
  <path class="st1" d="M56.05,56.44c-.93,0-1.73,0-1.73,0,0,0,1.31-.08,2.14-.97.22.15.26.96-.41.97"/>
  <path class="st6" d="M49.83,69.18c1.01.68,1.35,1.67,1.35,1.67,0,0,.34-.83-.12-1.48.92-.27,2.52.15,3.96.71,2.11.83,3.7,1.1,5.31.83s2.46-.61,2.98-1.41c.27-.43,1.09-.34.86.31-.23.65-1.23,2.49-3.11,2.99-1.89.5-5,1.35-9.6.2-1.23-.31-4.12-1.08-5.31-2.6-.24-.3-.3-.87-.31-.96,0-.11.06-.17.32-.12.81.14.97-.17,1.27-.51.33-.04,1.5-.25,2.42.37"/>
  <path class="st5" d="M63.82,69.67c-1.41,2.68-4.13,3.09-6.97,3.18-1.15.03-2.31-.11-3.3-.37.84.08,1.7.02,2.23-.17-.21-1.07-2.04-1.85-3.31-1.92-.24-.28-.31-.63-.9-.84.41.38.38.91.59,1.19,1.04.21,2.32.48,2.93,1.3-.22.28-2.11.12-3.14-.11-.44-.16-.91-.43-1.15-.91-.49.55-1.27.35-2.08-.05,0-.31-.2-.59-.62-.67.09.14.11.28.11.39-.91-.52-1.77-1.16-2.21-1.13-.62.05,1.35,3.49,3,3.86,4.92,2.84,13.15,1.59,15.1-3.2.27-.69.03-1.14-.28-.55Z"/>
  <path class="st6" d="M48.28,70.65c.03.3-.21.57-.53.6-.32.04-.6-.18-.63-.49-.03-.3.21-.57.52-.6.32-.03.6.19.63.49"/>
  <path class="st7" d="M48,70.71c0,.15-.14.27-.3.27s-.3-.12-.3-.27.14-.27.3-.27.3.12.3.27"/>
  <path class="st6" d="M62.11,65.8c-.34,1.16,1.1,2.74,1.1,2.74,0,0-.65-2.04-1.1-2.74"/>
  <path class="st6" d="M63.12,66.05c-.5.68.44,2.23.44,2.23,0,0-.05-1.24-.44-2.23"/>
  <path class="st6" d="M64.68,67.83c.39-.85,1.18-1.7,2.01-2-1.73.21-2.12,1.36-2.01,2"/>
  <path class="st6" d="M55.27,42c-.73-1.41-1.77-.32-3.6-.89-.32,1.49-.65,4.17-.74,4.63,1.25.38,2.34-.79,3.83.18-.16-1.93.46-3.53.46-3.53,0,0,.02-.24.04-.38"/>
  <path class="st8" d="M55.27,41.99c-.14-.25-.28-.46-.52-.6-.21,2.29-.27,2.79-1,4.14.45.06.79.22,1.02.39-.16-1.93.5-3.45.5-3.45v-.48Z"/>
  <path class="st6" d="M58.87,41.1c-1.83.56-2.87-.52-3.6.89v4.31c1.75-1.64,2.95-.16,4.33-.57-.09-.46-.41-3.13-.74-4.63"/>
  <rect class="st9" x="54.76" y="48.93" width="1.02" height="1.18"/>
  <polygon class="st9" points="55.28 47.8 55.78 48.68 54.76 48.68 55.28 47.8"/>
  <path class="st10" d="M46.74,51.28h0"/>
  <path class="st2" d="M50.82,57.06s1.39-.69,1.53-1.39c-.43-.41-1.52-.46-1.52-.46,0,0,1.25-.95,1.2-1.64-.62-.29-1.74-.12-1.74-.12.52-.71.66-1.28.64-1.78-.65-.11-1.65.28-1.65.28,0,0,.34-1.2,0-1.82-.6-.16-1.45.9-1.45.9,0,0-.3-1.31-1-2.01-.71.7-1.01,2.01-1.01,2.01,0,0-.85-1.06-1.45-.9-.33.62,0,1.82,0,1.82,0,0-1-.38-1.66-.28-.02.5.13,1.07.65,1.78,0,0-1.11-.17-1.74.12-.05.69,1.2,1.64,1.2,1.64,0,0-1.09.05-1.52.46.14.71,1.53,1.39,1.53,1.39,0,0-.83.17-1.34.74.32.43,1.05.84,1.62.93-.49.4-.77.7-.89.94.8.64,2.47.74,4.14.22,0,.32,0,2.9-.39,4.08h1.69c-.39-1.18-.39-3.76-.39-4.08,1.67.52,3.35.43,4.14-.22-.13-.23-.4-.54-.89-.94.57-.09,1.29-.5,1.61-.93-.51-.57-1.33-.74-1.33-.74"/>
  <path class="st4" d="M49.3,57.11c.16-.09.97-.33,1.38-1.05-.41-.4-1.38-.42-1.38-.42,0,0,.86-.57,1.15-1.41-.74-.21-1.5,0-1.5,0,0,0,.63-.89.71-1.64-.71.08-1.46.45-1.46.45.21-.46.32-1.12.23-1.69-.35.07-.67.47-.87.72-.18-.57-.48-.75-.69-.87-.34.51-.41.83-.37,1.53.12-.11.3-.3.6-.47.18.99-.17,1.71-.17,1.71,0,0,.44-.28,1.01-.35.02.54-.18,1.11-.75,1.78,0,0,.51-.31,1.09-.35-.09.77-.56,1.28-1.05,1.72.32-.15.88-.14,1.26,0-.2.58-.65.88-1.32,1.24.41,0,.83.05,1.07.21-.27.5-.92.74-1.37.87,1.04.4,2.06.56,3.05.32-.07-.29-.44-.65-.88-.91.4-.09,1-.22,1.52-.66-.34-.34-.75-.57-1.26-.71"/>
  <g>
    <path class="st8" d="M43.7,79.61c.24.79-.39,2.32.05,3.2-.38-.01-2.82.43-3.18.12-.36-.32-1.3-.99-.36-1.5.95-.51,3.35-1.43,3.48-1.81"/>
    <path class="st8" d="M66.95,79.53c.28,2.53-.15,2.81-.12,3.54.24.06,2.17.46,2.86.1.68-.37,1.16-1.27.84-1.63-.32-.37-1.89-1.37-2.53-1.48-.63-.11-.88-.34-1.05-.53"/>
    <path class="st7" d="M69.97,80.75c-1.05-.56-2.61-.91-3.5-2.11-.33,1.22.47,1.91.44,3.7.74-1.39.13-1.73.26-2.39.6.76,1.5.87,2.12,1.2.8.42,1.29,1.34-.37,1.34h-27.3c-1.71,0-1.21-.92-.41-1.34.63-.33,1.54-.44,2.13-1.22.12.66-.49.99.25,2.38-.03-1.79.76-2.46.45-3.68-.88,1.21-2.47,1.55-3.52,2.11-.9.48-.9.79-.9,2.33v3.2c0,.61.7.97,1.55.95h28.13c.85.02,1.57-.33,1.57-.94v-3.21c.01-1.58-.02-1.84-.92-2.32"/>
    <path class="st6" d="M41.2,83.81h.6l.42,1.17s.03.12.07.28c.04-.16.06-.26.08-.28l.41-1.17h.61l-.87,2.08h-.43l-.88-2.08"/>
    <rect class="st6" x="43.71" y="83.81" width=".58" height="2.08"/>
    <path class="st6" d="M45.36,83.81h.71l.72,2.08h-.57l-.1-.37h-.81l-.11.37h-.56l.72-2.08M46,85.12l-.21-.69s-.03-.13-.07-.28c-.04.15-.06.25-.07.28l-.21.69h.57-.01Z"/>
    <path class="st6" d="M47.92,83.81h.6l.42,1.17s.03.12.07.28c.04-.16.06-.26.07-.28l.41-1.17h.6l-.87,2.08h-.43l-.87-2.08"/>
    <polyline class="st6" points="50.41 83.81 51.69 83.81 51.69 84.27 50.96 84.27 50.96 84.63 51.64 84.63 51.64 85.08 50.96 85.08 50.96 85.43 51.69 85.43 51.69 85.9 50.41 85.9 50.41 83.81"/>
    <path class="st6" d="M52.21,83.81h.63c.29,0,.51,0,.69.14.15.12.23.29.23.51,0,.32-.16.53-.46.59l.57.84h-.64l-.48-.82v.82h-.53v-2.08M52.85,84.8c.24,0,.35-.07.35-.26,0-.22-.11-.29-.34-.29h-.11v.55h.11,0Z"/>
    <rect class="st6" x="54.23" y="83.81" width=".57" height="2.08"/>
    <polyline class="st6" points="55.71 84.31 55.25 84.31 55.25 83.81 56.74 83.81 56.74 84.31 56.28 84.31 56.28 85.9 55.71 85.9 55.71 84.31"/>
    <path class="st6" d="M57.64,83.81h.71l.72,2.08h-.56l-.11-.37h-.81l-.11.37h-.57l.72-2.08M58.28,85.12l-.21-.69s-.03-.13-.07-.28c-.04.15-.06.25-.07.28l-.21.69h.57-.01Z"/>
    <path class="st6" d="M60,85.51c.16,0,.26-.09.26-.21,0-.17-.11-.22-.35-.28-.37-.1-.56-.25-.56-.57,0-.39.28-.68.72-.68.23,0,.44.06.61.19l-.18.41c-.13-.11-.27-.16-.4-.16-.14,0-.23.08-.23.17,0,.15.14.18.33.23.37.1.57.23.57.62,0,.43-.31.73-.8.73-.29,0-.52-.1-.74-.31l.26-.42c.17.19.33.28.5.28"/>
    <path class="st6" d="M62.03,83.81h.6l.42,1.17s.03.12.07.28c.04-.16.06-.26.07-.28l.41-1.17h.6l-.87,2.08h-.43l-.87-2.08"/>
    <rect class="st6" x="64.54" y="83.81" width=".57" height="2.08"/>
    <polyline class="st6" points="66.02 84.31 65.55 84.31 65.55 83.81 67.05 83.81 67.05 84.31 66.58 84.31 66.58 85.9 66.02 85.9 66.02 84.31"/>
    <path class="st6" d="M67.95,83.81h.71l.72,2.08h-.57l-.1-.37h-.81l-.11.37h-.56l.72-2.08M68.59,85.12l-.21-.69s-.03-.13-.07-.28c-.04.15-.06.25-.07.28l-.21.69h.56Z"/>
  </g>
  <path class="st1" d="M56.4,77.42c.14.16.23.94-.44.99-1.15.09-1.71-.02-1.71-.02,0,0,1.54-.18,2.14-.97"/>
  <path class="st1" d="M61.59,53.77c.07-.94.52-1.16,1.13-1.15.34,0,.86,0,2.12,0-.71.06-1.59.44-1.71,1.36-.11.86-.11,3.82-.14,5.09-.62.02-1.45,0-1.64.05.09-1.31.16-4.4.23-5.34"/>
  <rect class="st1" x="55.28" y="48.93" width=".31" height="1.18"/>
  <polygon class="st1" points="55.59 48.68 55.28 47.8 55.28 48.68 55.59 48.68"/>
  <metadata>
    <sfw xmlns="http://ns.adobe.com/SaveForWeb/1.0/">
      <slices/>
      <sliceSourceBounds x="0.14" y="0.16" width="235.28" height="126.98" bottomLeftOrigin="true"/>
    </sfw>
  </metadata>
</svg>